<svg width="500" height="500" viewBox="0 0 500 500" fill="none" xmlns="http://www.w3.org/2000/svg">
<path d="M499.537 155.747V123.138H424.277V75.3291H376.513V0H343.934V75.3291H302.875V0H270.297V75.3291H229.239V0H196.661V75.3291H155.603V0H123.024V75.3291H75.2593V123.138H0V155.747H75.2593V196.844H0V229.452H75.2593V270.548H0V303.156H75.2593V344.253H0V376.862H75.2593V424.671H123.024V500H155.603V424.671H196.661V500H229.239V424.671H270.297V500H302.875V424.671H343.934V500H376.513V424.671H424.277V376.862H499.537V344.253H424.277V303.156H499.537V270.548H424.277V229.452H499.537V196.844H424.277V155.747H499.537Z" fill="#B5E45F"/>
<path d="M500 155.747V123.138H424.741V75.3291H376.976V0H344.397V75.3291H303.339V0H270.76V75.3291H250.232V424.671H270.76V500H303.339V424.671H344.397V500H376.976V424.671H424.741V376.862H500V344.253H424.741V303.156H500V270.548H424.741V229.452H500V196.844H424.741V155.747H500Z" fill="#6A9113"/>
<path d="M392.154 107.935H108.298V392.054H392.154V107.935Z" fill="#6A9113"/>
<path d="M391.702 108.398H249.768V392.518H391.702V108.398Z" fill="#285100"/>
<path d="M334.2 250.065C340.166 243.74 343.83 235.218 343.83 225.833C343.83 207.481 329.844 192.41 311.961 190.689C312.246 189.702 312.493 187.201 312.493 181.459C312.493 164.136 298.462 150.093 281.155 150.093C263.849 150.093 249.818 164.137 249.818 181.459C249.818 164.136 235.787 150.093 218.481 150.093C201.175 150.093 187.144 164.137 187.144 181.459C187.144 187.201 187.393 189.702 187.676 190.689C169.792 192.41 155.807 207.481 155.807 225.833C155.807 235.218 159.47 243.74 165.437 250.065L165.359 249.994C159.434 256.312 155.807 264.811 155.807 274.158C155.807 292.79 170.225 308.042 188.5 309.37L188.498 309.38C187.617 312.275 187.143 315.349 187.143 318.532C187.143 335.855 201.174 349.898 218.48 349.898C235.786 349.898 249.817 335.855 249.817 318.532C249.817 335.855 263.848 349.898 281.154 349.898C298.461 349.898 312.492 335.855 312.492 318.532C312.492 315.349 312.017 312.275 311.136 309.38L311.134 309.37C329.41 308.041 343.828 292.79 343.828 274.158C343.828 264.811 340.199 256.312 334.276 249.994L334.2 250.065Z" fill="#EEBF70"/>
<path d="M334.2 250.065C340.166 243.74 343.83 235.218 343.83 225.833C343.83 207.199 329.411 191.936 311.132 190.609C311.132 190.609 312.492 194.905 312.492 181.458C312.492 164.135 298.461 150.092 281.155 150.092C263.849 150.092 249.818 164.136 249.818 181.458V318.532C249.818 335.855 263.849 349.898 281.155 349.898C298.462 349.898 312.492 335.854 312.492 318.532C312.492 315.349 312.018 312.275 311.137 309.38L311.135 309.37C329.41 308.041 343.829 292.79 343.829 274.158C343.829 264.811 340.2 256.312 334.277 249.994L334.2 250.065Z" fill="#E79C25"/>
<path d="M360.119 225.833C360.119 204.706 347.188 186.237 328.668 178.321C327.046 153.494 306.362 133.789 281.155 133.789C269.163 133.789 258.201 138.259 249.819 145.607C241.436 138.259 230.475 133.789 218.483 133.789C193.276 133.789 172.592 153.494 170.97 178.321C152.45 186.237 139.519 204.706 139.519 225.833C139.519 234.553 141.699 242.769 145.527 249.979C141.612 257.356 139.519 265.622 139.519 274.158C139.519 295.481 152.503 313.823 170.971 321.687C172.601 346.506 193.281 366.203 218.483 366.203C230.475 366.203 241.438 361.734 249.819 354.385C258.202 361.733 269.163 366.203 281.155 366.203C306.356 366.203 327.036 346.507 328.667 321.687C347.136 313.823 360.119 295.481 360.119 274.158C360.119 265.622 358.025 257.357 354.111 249.979C357.939 242.768 360.119 234.552 360.119 225.833ZM218.483 333.594C212.115 333.594 206.671 329.607 204.477 324.002C213.957 321.445 222.625 316.21 229.326 308.803L205.179 286.912C201.529 290.947 196.526 293.169 191.094 293.169C180.62 293.169 172.099 284.64 172.099 274.156C172.099 274.042 172.113 273.929 172.116 273.815C177.995 276.153 184.394 277.453 191.095 277.453V244.845C180.621 244.845 172.1 236.315 172.1 225.832C172.1 219.341 175.422 213.545 180.474 210.104C185.814 217.213 193.125 222.857 201.76 226.101L213.203 195.569C207.361 193.376 203.438 187.705 203.438 181.458C203.438 173.152 210.19 166.396 218.486 166.396C226.783 166.396 233.531 173.154 233.531 181.458V318.532C233.529 326.838 226.78 333.594 218.483 333.594ZM281.155 333.594C272.857 333.594 266.109 326.837 266.109 318.533V181.458C266.109 173.152 272.859 166.396 281.155 166.396C289.451 166.396 296.203 173.153 296.203 181.458C296.203 187.706 292.28 193.377 286.438 195.569L297.881 226.101C306.516 222.858 313.827 217.214 319.167 210.104C324.219 213.545 327.541 219.341 327.541 225.832C327.541 236.315 319.019 244.845 308.546 244.845V277.453C315.248 277.453 321.647 276.153 327.526 273.815C327.528 273.93 327.543 274.042 327.543 274.156C327.543 284.64 319.021 293.169 308.548 293.169C303.116 293.169 298.114 290.947 294.463 286.912L270.316 308.803C277.017 316.208 285.685 321.445 295.165 324.002C292.968 329.607 287.523 333.594 281.155 333.594Z" fill="#F3D49D"/>
<path d="M360.119 225.833C360.119 204.706 347.188 186.237 328.668 178.321C327.046 153.494 306.362 133.789 281.155 133.789C269.163 133.789 258.201 138.259 249.819 145.607C249.819 176.144 249.819 327.919 249.819 354.386C258.202 361.734 269.163 366.204 281.155 366.204C306.356 366.204 327.037 346.508 328.667 321.687C347.136 313.824 360.119 295.482 360.119 274.159C360.119 265.623 358.025 257.358 354.111 249.979C357.939 242.768 360.119 234.552 360.119 225.833ZM281.155 333.594C272.857 333.594 266.109 326.837 266.109 318.533V181.458C266.109 173.152 272.859 166.396 281.155 166.396C289.451 166.396 296.203 173.153 296.203 181.458C296.203 187.706 292.28 193.377 286.438 195.569L297.881 226.101C306.516 222.858 313.827 217.214 319.167 210.104C324.219 213.545 327.541 219.341 327.541 225.832C327.541 236.315 319.02 244.845 308.546 244.845V277.453C315.248 277.453 321.647 276.153 327.526 273.815C327.528 273.93 327.543 274.042 327.543 274.156C327.543 284.64 319.021 293.169 308.548 293.169C303.116 293.169 298.114 290.947 294.463 286.912L270.316 308.803C277.017 316.208 285.685 321.445 295.165 324.002C292.969 329.607 287.523 333.594 281.155 333.594Z" fill="#EEBF70"/>
</svg>
