<svg width="500" height="500" viewBox="0 0 500 500" fill="none" xmlns="http://www.w3.org/2000/svg">
<path d="M60.6097 175.39C61.1706 174.942 61.7792 174.557 62.4244 174.241C72.801 169.077 105.07 155.671 130.302 156.222C178.849 157.28 240.633 210.859 226.254 246.839C215.313 274.216 160.918 289.792 121.211 277.335C65.5855 259.882 43.6294 188.929 60.6097 175.39Z" fill="#DFF9BA"/>
<path d="M301.205 176.03C295.821 112.34 270.164 82.141 286.349 62.9987C301.853 44.6627 345.873 48.1518 374.239 65.4731C450.748 112.193 479.859 300.142 382.369 392.677C289.728 480.608 112.933 453.751 73.2299 382.511C63.9661 365.889 56.5057 336.694 69.7975 318.9C102.797 274.723 224.291 353.593 277.769 303.444C309.463 273.724 304.159 210.983 301.205 176.03Z" fill="#DFF9BA"/>
</svg>
