<svg width="120" height="120" viewBox="0 0 120 120" fill="none" xmlns="http://www.w3.org/2000/svg">
<path d="M60 110C87.6142 110 110 87.6142 110 60C110 32.3858 87.6142 10 60 10C32.3858 10 10 32.3858 10 60C10 87.6142 32.3858 110 60 110Z" fill="#FFB600"/>
<path d="M56.75 106C82.5693 106 103.5 85.0693 103.5 59.25C103.5 33.4307 82.5693 12.5 56.75 12.5C30.9307 12.5 10 33.4307 10 59.25C10 85.0693 30.9307 106 56.75 106Z" fill="#FFCE00"/>
<path d="M59.7476 41.4153C47.5154 41.4153 37.6617 51.269 37.6617 63.5011C37.6617 75.7333 47.5154 85.5869 59.7476 85.5869C71.9797 85.5869 81.8334 75.7333 81.8334 63.5011C81.8334 51.269 71.9797 41.4153 59.7476 41.4153ZM59.7476 78.7913C51.253 78.7913 44.4574 71.9957 44.4574 63.5011C44.4574 55.0066 51.253 48.2109 59.7476 48.2109C68.2421 48.2109 75.0378 55.0066 75.0378 63.5011C75.0378 71.9957 68.2421 78.7913 59.7476 78.7913Z" fill="#2B2B2B"/>
<path d="M33.4145 62.4817C40.2102 58.7441 48.7047 60.6129 52.952 66.729C53.1219 66.8989 53.2918 66.8989 53.4617 66.8989L55.5004 65.7097C55.6703 65.5398 55.8401 65.3699 55.6703 65.2C55.6703 64.8602 55.5004 64.5204 55.5004 64.1806V63.8409V63.5011V63.1613C55.5004 62.9914 55.5004 62.9914 55.6703 62.8215C55.6703 62.6516 55.6703 62.6516 55.8401 62.4817C55.8401 62.4817 55.8401 62.3118 56.01 62.3118C56.01 62.3118 56.01 62.1419 56.1799 62.1419C56.1799 62.1419 56.1799 61.9721 56.3498 61.9721L56.5197 61.8022L56.6896 61.6323L56.8595 61.4624L57.0294 61.2925L57.1993 61.1226H57.3692C57.7089 60.9527 58.0487 60.7828 58.2186 60.7828C58.3885 60.7828 58.5584 60.6129 58.5584 60.2732V58.0646C58.5584 57.8947 58.3885 57.7248 58.2186 57.7248C50.5735 57.0452 44.6273 50.7593 44.6273 43.1142C44.6273 36.1486 49.7241 30.2024 56.3498 28.8433C56.5197 28.8433 56.6896 28.6734 56.6896 28.3336V27.4842C56.6896 27.3143 56.5197 27.1444 56.3498 27.1444C46.8359 28.6734 39.3607 36.9981 39.3607 47.0217C39.3607 49.2302 39.7005 51.4388 40.3801 53.4775C38.3414 53.8173 36.1328 54.6667 34.264 55.6861C25.4297 60.7828 21.862 71.3161 25.4297 80.3203C25.5996 80.4902 25.7694 80.4902 25.9393 80.4902L26.449 80.1504C26.6189 79.9805 26.7888 79.8106 26.6189 79.6407C24.5802 73.1849 27.1286 65.8795 33.4145 62.4817ZM85.2313 55.6861C83.1926 54.4969 81.1539 53.8173 79.1152 53.4775C79.7948 51.4388 80.1346 49.4001 80.1346 47.0217C80.1346 36.9981 72.6594 28.6734 62.8057 27.1444C62.6358 27.1444 62.4659 27.3143 62.4659 27.4842V28.1638C62.4659 28.3336 62.6358 28.5035 62.8057 28.6734C69.6013 30.0326 74.5282 35.9787 74.5282 42.9443C74.5282 50.5894 68.582 56.8753 60.9369 57.5549C60.767 57.5549 60.5971 57.7248 60.5971 57.8947V60.1033C60.5971 60.2731 60.767 60.443 60.9369 60.6129C61.2767 60.7828 61.6164 60.7828 61.9562 60.9527L62.1261 61.1226C62.296 61.1226 62.296 61.2925 62.296 61.2925L62.8057 61.8022L62.9756 61.9721L63.1455 62.1419V62.4817C63.1455 62.4817 63.1455 62.6516 63.3153 62.6516C63.3153 62.8215 63.3154 62.8215 63.4852 62.9914V64.1806C63.4852 64.5204 63.4852 64.8602 63.3153 65.2C63.3153 65.3699 63.3154 65.5398 63.4852 65.7097L65.5239 66.8989C65.6938 67.0688 65.8637 66.8989 66.0336 66.729C70.4508 60.6129 78.9453 58.5742 85.5711 62.4817C91.6871 66.0494 94.4054 73.1849 92.1968 79.6407C92.1968 79.8106 92.1968 79.9805 92.3667 80.1504L92.8764 80.4902C93.0463 80.6601 93.2162 80.4902 93.3861 80.3203C97.6333 71.1462 94.0656 60.6129 85.2313 55.6861ZM71.3002 87.7955C64.5046 84.0579 61.9562 75.7332 65.354 68.9376C65.5239 68.7677 65.354 68.5978 65.1841 68.4279L63.1455 67.2387C62.9756 67.0688 62.8057 67.2387 62.6358 67.2387C62.296 67.4086 62.1261 67.7484 61.7863 67.7484C61.6164 67.7484 61.6164 67.9182 61.4465 67.9182C61.2767 67.9182 61.2767 67.9182 61.1068 68.0881C60.9369 68.0881 60.5971 68.258 60.4272 68.258H60.0874H59.9175H59.7476H59.5777H59.4079H59.238H58.3885C58.2186 68.258 58.2186 68.258 58.0487 68.0881C58.0487 68.0881 57.8788 68.0881 57.8788 67.9182H57.7089C57.3692 67.7484 57.1993 67.5785 56.8595 67.4086C56.6896 67.2387 56.5197 67.2387 56.3498 67.4086L54.3111 68.5978C54.1412 68.7677 54.1412 68.9376 54.1412 69.1075C57.3692 75.9031 54.8208 84.0579 48.1951 87.9654C42.079 91.5331 34.264 90.174 29.6769 85.0772C29.507 84.9073 29.3372 84.9073 29.1673 84.9073L28.6576 85.2471C28.4877 85.417 28.4877 85.5869 28.4877 85.7568C34.6038 93.4019 45.8166 95.6105 54.6509 90.5137C56.6896 89.3245 58.3885 87.9654 59.7476 86.4364C61.1068 87.9654 62.8057 89.4944 64.8444 90.5137C73.6787 95.6105 84.7216 93.232 91.0076 85.7568C91.1775 85.5869 91.0076 85.417 90.8377 85.2471L90.328 84.7374C90.1581 84.5676 89.9882 84.7375 89.8183 84.9073C85.2313 89.8342 77.4163 91.1933 71.3002 87.7955Z" fill="black"/>
</svg>
