<svg width="120" height="120" viewBox="0 0 120 120" fill="none" xmlns="http://www.w3.org/2000/svg">
<path d="M63.1786 118.454C23.6306 118.454 13.0641 77.2281 17.8404 50.2166C18.0483 49.0409 19.5893 48.7023 20.2608 49.6895C22.3402 52.7457 24.1906 57.1602 27.2564 56.777C31.8645 56.2009 35.0569 15.5396 62.3674 4.09859C63.2342 3.73555 64.141 4.42438 64.0458 5.35906C62.6953 18.609 70.6507 37.5781 84.7449 37.5781C92.8242 37.5781 98.3522 31.13 101.115 24.6542C101.954 22.6871 104.828 22.9351 105.309 25.0189C110.238 46.3663 123.414 118.454 63.1786 118.454Z" fill="#FF8F1F"/>
<path d="M49.3145 78.701C50.2445 77.9196 51.6564 78.4559 51.8676 79.6521C52.3616 82.4513 53.9863 87.2618 59.3155 87.2618C65.7262 87.2618 70.0766 69.6218 71.2176 64.4339C71.4053 63.5803 72.2371 63.0007 73.0935 63.1749C89.1142 66.4322 96.9037 118.454 61.6787 118.454C36.0353 118.454 41.8447 84.9762 49.3145 78.701ZM93.0913 22.3636C93.6559 17.9475 85.5944 30.026 85.5944 30.026C85.5944 30.026 91.7404 32.929 93.0913 22.3636ZM11.863 88.2235C12.033 86.3435 9.61444 81.3101 9.18623 83.303C8.16131 88.0711 11.6931 90.1036 11.863 88.2235Z" fill="#FFB636"/>
<path d="M76.3662 82.8657C75.7655 80.3602 73.6111 86.1798 73.8818 88.5502C74.1525 90.9205 77.8031 88.8601 76.3662 82.8657Z" fill="#FFD469"/>
</svg>
