<svg width="120" height="120" viewBox="0 0 120 120" fill="none" xmlns="http://www.w3.org/2000/svg">
<path d="M59.9992 10.2434C54.7842 9.71969 50.9192 13.9089 49.2446 18.6219C35.451 45.8525 21.6669 73.0831 7.88171 100.314C4.6108 107.121 10.9535 115.5 18.4706 114.977H59.9992H101.529C109.047 115.5 115.39 107.121 112.118 100.314C98.3311 73.0831 84.5496 45.8525 70.7523 18.6219C69.0792 13.9089 65.2143 9.71969 59.9992 10.2434Z" fill="#FFB600"/>
<path d="M59.9992 5.0065C54.7842 4.81169 50.9192 9.0293 49.2451 13.5161C35.451 40.8022 21.6669 68.0716 7.88171 95.3389C4.6108 102.183 10.9535 110.625 18.4706 109.74C32.2897 109.724 46.1802 109.734 59.9992 109.74C73.8177 109.734 87.7104 109.724 101.529 109.74C109.047 110.625 115.39 102.183 112.118 95.3389C98.3311 68.0716 84.5496 40.8043 70.7523 13.5161C69.0792 9.0293 65.2143 4.81169 59.9992 5.0065Z" fill="#FFCE00"/>
<path d="M59.999 36.4266C57.0765 36.4266 54.7046 38.7711 54.7046 41.6633L57.3518 78.3199H62.6463L65.2935 41.6633C65.2935 38.7711 62.9216 36.4266 59.999 36.4266ZM59.999 83.5566C57.0765 83.5566 54.7046 85.9026 54.7046 88.7932C54.7046 91.6839 57.0765 94.0299 59.999 94.0299C62.9216 94.0299 65.2935 91.6839 65.2935 88.7932C65.2935 85.9026 62.9216 83.5566 59.999 83.5566Z" fill="black"/>
</svg>
