<svg width="120" height="120" viewBox="0 0 120 120" fill="none" xmlns="http://www.w3.org/2000/svg">
<path d="M61.339 70.2544C60.3099 70.2544 59.4746 69.4191 59.4746 68.39C59.4746 54.0752 73.5621 27.3732 100.491 27.3732C101.521 27.3732 102.356 28.2085 102.356 29.2376C102.356 43.5524 88.2685 70.2544 61.339 70.2544Z" fill="#6A9113"/>
<path d="M44.5592 38.5592C22.2907 38.5592 11 27.8948 11 6.86441C11 5.83531 11.8353 5 12.8644 5C35.1329 5 46.4236 15.6644 46.4236 36.6947C46.4236 37.7241 45.5885 38.5592 44.5592 38.5592Z" fill="#6A9113"/>
<path d="M52.0219 105.996C51.8466 105.996 51.6696 105.97 51.4923 105.918C50.506 105.627 49.9412 104.59 50.2338 103.602C59.636 71.8066 48.3023 44.2918 43.1098 37.8669C42.4629 37.0651 42.5858 35.8906 43.3876 35.2437C44.1894 34.5985 45.3601 34.7216 46.0089 35.5234C52.4877 43.5386 63.4447 72.0768 53.8077 104.659C53.5694 105.47 52.8274 105.996 52.0219 105.996Z" fill="#285100"/>
<path d="M55.7168 77.8218C55.5211 77.8218 55.3198 77.79 55.1222 77.723C54.147 77.3949 53.6213 76.3377 53.9495 75.3627C54.6673 73.2298 58.3699 68.6285 64.9588 61.691C74.84 51.2801 75.4777 51.351 76.3485 51.4479C77.372 51.5654 78.1065 52.4901 77.9892 53.5119C77.9183 54.1328 77.5492 54.6473 77.0422 54.9307C75.0435 56.5229 58.6647 73.0396 57.4846 76.5504C57.2233 77.3296 56.4961 77.8218 55.7168 77.8218Z" fill="#285100"/>
<path d="M44.56 38.5592C44.0547 38.5592 43.5496 38.3559 43.1822 37.9533C37.2199 31.4259 27.3459 24.6079 27.2471 24.5389C26.3989 23.9554 26.1845 22.7938 26.768 21.9456C27.3515 21.0991 28.5112 20.8847 29.3614 21.4682C29.779 21.7552 39.6882 28.5995 45.9359 35.4362C46.6294 36.197 46.5772 37.3771 45.8166 38.0706C45.4585 38.3989 45.0093 38.5592 44.56 38.5592Z" fill="#285100"/>
<path d="M104.219 103.813C104.219 100.724 101.715 98.2198 98.6259 98.2198C96.1071 98.2198 93.9761 99.8866 93.2751 102.176C92.973 103.166 92.0221 103.813 90.9874 103.813C90.1055 103.813 89.3374 103.315 88.8714 102.568C88.038 101.227 85.9816 100.084 83.7107 100.084C83.7107 96.995 81.2067 94.491 78.1174 94.491C76.4954 94.491 75.0486 95.192 74.027 96.294C73.2403 94.1573 71.2044 92.6266 68.7956 92.6266C65.7064 92.6266 63.2024 95.1304 63.2024 98.2198C60.0143 98.2198 57.4489 100.888 57.6167 104.113C57.6987 105.677 58.4724 107.031 59.6098 107.98C59.6416 107.907 59.6938 107.848 59.7161 107.769C60.4172 105.48 62.5482 103.813 65.067 103.813C68.1562 103.813 70.6602 106.317 70.6602 109.406C73.7495 109.406 76.2535 111.91 76.2535 114.999H104.219C107.309 114.999 109.813 112.496 109.813 109.406C109.812 106.317 107.309 103.813 104.219 103.813Z" fill="#864D18"/>
<path d="M70.6617 109.407C70.6617 106.318 68.1577 103.814 65.0685 103.814C62.5497 103.814 60.4186 105.48 59.7195 107.77C59.6952 107.848 59.643 107.908 59.6115 107.981C58.4741 107.032 57.7004 105.678 57.6184 104.114C57.6128 104.012 57.6332 103.916 57.6332 103.814H53.882C51.3632 103.814 49.2322 105.481 48.5311 107.77C48.2291 108.76 47.2782 109.407 46.2435 109.407C45.3616 109.407 44.5935 108.909 44.1273 108.162C43.2939 106.821 41.2374 105.678 38.9665 105.678C38.9665 102.589 36.4628 100.085 33.3733 100.085C31.7512 100.085 30.3045 100.786 29.2829 101.888C28.4961 99.7515 26.4603 98.2207 24.0515 98.2207C20.9622 98.2207 18.4582 100.724 18.4582 103.814C15.2702 103.814 12.7047 106.482 12.8725 109.707C13.0311 112.733 15.7456 115 18.7754 115H76.2549C76.2549 111.911 73.7509 109.407 70.6617 109.407Z" fill="#AF6D2D"/>
</svg>
