<svg width="200" height="200" viewBox="0 0 200 200" fill="none" xmlns="http://www.w3.org/2000/svg">
<path d="M76.4144 97.5816C76.5064 97.0354 76.5544 96.4761 76.5544 95.9066C76.5544 89.7963 71.0657 84.8431 64.2952 84.8431C62.8681 84.8431 61.4991 85.0655 60.2252 85.4701C56.5273 79.6643 49.5864 75.7549 41.6338 75.7549C32.102 75.7549 24.0252 81.372 21.242 89.1376C9.49319 89.2286 0 97.8504 0 108.474C0 119.155 9.40718 123.515 21.242 123.515H64.2952C74.3072 123.515 84.9307 120.489 84.9307 111.454C84.9307 105.605 81.529 100.474 76.4144 97.5816Z" fill="url(#paint0_linear_32_596)"/>
<path d="M86.4342 40.2897L74.3335 61.249H103.003L90.9023 40.2897C89.9094 38.5701 87.4273 38.5701 86.4342 40.2897Z" fill="#FF8008"/>
<path d="M51.2923 56.6969L57.556 80.0739L77.8285 59.8014L54.4516 53.5377C52.5334 53.0236 50.7783 54.7788 51.2923 56.6969Z" fill="#F09819"/>
<path d="M38.0446 93.1476L59.0039 105.248V76.5789L38.0446 88.6796C36.325 89.6727 36.325 92.1548 38.0446 93.1476Z" fill="#FF8008"/>
<path d="M54.4516 128.29L77.8285 122.026L57.556 101.753L51.2923 125.13C50.7783 127.049 52.5334 128.804 54.4516 128.29Z" fill="#F09819"/>
<path d="M90.9023 141.537L103.003 120.578H74.3335L86.4342 141.537C87.4273 143.257 89.9094 143.257 90.9023 141.537Z" fill="#FF8008"/>
<path d="M126.044 125.13L119.781 101.753L99.5083 122.026L122.885 128.29C124.803 128.804 126.559 127.049 126.044 125.13Z" fill="#F09819"/>
<path d="M139.292 88.6796L118.333 76.5789V105.248L139.292 93.1476C141.012 92.1548 141.012 89.6727 139.292 88.6796Z" fill="#FF8008"/>
<path d="M122.885 53.5377L99.5083 59.8014L119.781 80.0739L126.044 56.6969C126.559 54.7788 124.803 53.0236 122.885 53.5377Z" fill="#F09819"/>
<path opacity="0.1" d="M56.3713 75.6519L57.5562 80.0738L76.3305 61.2996C68.0353 63.4755 60.9665 68.676 56.3713 75.6519Z" fill="black"/>
<path opacity="0.1" d="M54.2715 79.3112C52.0041 83.8946 50.7278 89.0558 50.7278 94.5156C50.7278 96.6633 50.9269 98.7644 51.3041 100.803L59.004 105.249V76.5789L54.2715 79.3112Z" fill="black"/>
<path opacity="0.1" d="M57.5562 101.753L55.033 111.171C58.1522 116.784 62.7985 121.43 68.4115 124.549L77.8287 122.026L57.5562 101.753Z" fill="black"/>
<path opacity="0.1" d="M74.3335 120.578L78.779 128.278C80.8174 128.655 82.9187 128.854 85.0664 128.854C90.5263 128.854 95.6874 127.578 100.271 125.31L103.003 120.578H74.3335V120.578Z" fill="black"/>
<path opacity="0.1" d="M99.5083 122.026L103.93 123.211C110.906 118.616 116.107 111.547 118.282 103.252L99.5083 122.026Z" fill="black"/>
<path d="M88.6683 125.252C107.633 125.252 123.007 109.878 123.007 90.9134C123.007 71.9488 107.633 56.575 88.6683 56.575C69.7037 56.575 54.3298 71.9488 54.3298 90.9134C54.3298 109.878 69.7037 125.252 88.6683 125.252Z" fill="#FFC837"/>
<path opacity="0.4" d="M95.2644 57.2103C94.2198 59.2771 93.6277 61.6116 93.6277 64.0854C93.6277 72.5175 100.463 79.3531 108.895 79.3531C112.896 79.3531 116.535 77.8127 119.258 75.2949C114.534 66.0616 105.751 59.2508 95.2644 57.2103Z" fill="#FFB636"/>
<path d="M187.92 120.028C188.051 119.17 188.119 118.291 188.119 117.395C188.119 107.792 180.334 100.007 170.73 100.007C168.706 100.007 166.764 100.356 164.957 100.992C159.712 91.8668 149.867 85.7222 138.587 85.7222C125.066 85.7222 113.61 94.5507 109.662 106.756C92.9972 106.899 79.5317 120.45 79.5317 137.149C79.5317 153.936 92.8752 160.789 109.662 160.789H170.73C184.931 160.789 200 156.032 200 141.831C200 132.638 195.175 124.574 187.92 120.028Z" fill="url(#paint1_linear_32_596)"/>
<circle cx="87.4227" cy="112.302" r="11.0057" fill="white"/>
<path d="M127.655 120.518C126.193 120.518 125.008 119.333 125.008 117.871V114.949C125.008 113.487 126.193 112.302 127.655 112.302C129.117 112.302 130.302 113.487 130.302 114.949V117.871C130.301 119.333 129.116 120.518 127.655 120.518Z" fill="#E2E8EA"/>
<path d="M142.398 120.518C140.937 120.518 139.751 119.333 139.751 117.871V114.949C139.751 113.487 140.936 112.302 142.398 112.302C143.86 112.302 145.045 113.487 145.045 114.949V117.871C145.045 119.333 143.86 120.518 142.398 120.518Z" fill="#E2E8EA"/>
<path d="M135.589 139.712C138.217 139.712 140.611 137.246 140.356 134.837C140.277 134.093 139.763 133.483 139.031 133.483C138.3 133.483 137.707 134.089 137.707 134.837C137.707 136.032 136.757 137.004 135.589 137.004C134.421 137.004 133.471 136.032 133.471 134.837C133.471 134.089 132.878 133.483 132.147 133.483C131.415 133.483 130.822 134.089 130.822 134.837C130.822 137.525 132.96 139.712 135.589 139.712Z" fill="#E2E8EA"/>
<defs>
<linearGradient id="paint0_linear_32_596" x1="42.4552" y1="92.3356" x2="42.4552" y2="123.581" gradientUnits="userSpaceOnUse">
<stop stop-color="white"/>
<stop offset="1" stop-color="#EAF1F4"/>
</linearGradient>
<linearGradient id="paint1_linear_32_596" x1="139.752" y1="111.783" x2="139.752" y2="160.893" gradientUnits="userSpaceOnUse">
<stop stop-color="white"/>
<stop offset="1" stop-color="#EAF1F4"/>
</linearGradient>
</defs>
</svg>
