<svg width="120" height="120" viewBox="0 0 120 120" fill="none" xmlns="http://www.w3.org/2000/svg">
<path d="M60 110C87.6142 110 110 87.6142 110 60C110 32.3858 87.6142 10 60 10C32.3858 10 10 32.3858 10 60C10 87.6142 32.3858 110 60 110Z" fill="#E03F20"/>
<path d="M56.75 106C82.5693 106 103.5 85.0693 103.5 59.25C103.5 33.4307 82.5693 12.5 56.75 12.5C30.9307 12.5 10 33.4307 10 59.25C10 85.0693 30.9307 106 56.75 106Z" fill="#F95428"/>
<path d="M46.0625 38.41C46.0625 52.4725 60.125 54.8175 60.125 66.535C60.125 71.2225 55.4375 78.2525 48.4075 78.2525C41.3775 78.2525 36.69 71.22 41.375 59.5025C34.3425 64.19 32 68.8775 32 73.565C32 85.285 43.7175 97.0025 60.125 97.0025C76.5325 97.0025 88.25 89.9725 88.25 75.9075C88.355 55.1075 64.2825 48.1575 57.78 38.4075C53.0925 31.375 55.4375 26.6875 60.1225 22C50.7475 24.345 46.06 30.9075 46.06 38.4075L46.0625 38.41Z" fill="black"/>
</svg>
