<svg width="510" height="500" viewBox="0 0 510 500" fill="none" xmlns="http://www.w3.org/2000/svg">
<path d="M158.023 122.261L166.509 45.8914C167.721 36.1931 176.207 28.9198 185.904 30.1322L484.109 61.6492C493.807 62.8617 501.08 71.3474 499.868 81.0444L468.351 379.249C468.351 387.735 458.653 395.008 448.956 395.008L371.374 386.523M365.311 324.701L431.983 331.974C435.619 331.974 438.044 329.549 439.256 325.913C439.256 324.701 439.256 323.489 438.044 322.277L365.31 190.146C364.098 187.721 359.249 186.51 356.824 187.721L351.976 192.57M324.096 104.078C333.794 102.865 343.491 110.139 343.491 119.837L375.008 419.254C376.221 428.952 368.947 438.649 359.249 438.649L61.0444 470.166C51.3462 471.379 41.6492 464.106 41.6492 454.407L10.1322 156.202C8.91979 146.504 16.1931 136.807 25.8914 136.807L324.096 104.078ZM115.595 186.508C93.7752 188.933 76.8049 208.328 79.2285 231.361C81.6534 253.181 101.049 270.151 124.081 267.728C145.901 265.303 162.871 245.908 160.448 222.875C158.024 199.843 137.415 184.085 115.595 186.508ZM225.907 256.817L167.72 328.338C165.295 330.763 161.659 331.974 159.234 329.551L145.9 318.641C143.475 316.216 138.626 317.429 137.414 319.854L74.3788 397.436C71.9539 399.86 71.9539 404.709 75.5912 405.921C74.3788 407.134 76.8036 407.134 78.0161 407.134L328.945 380.465C332.581 380.465 335.006 376.829 335.006 373.192C335.006 371.979 333.793 370.767 333.793 369.556L235.604 255.607C231.968 254.395 228.332 254.392 225.907 256.817Z" stroke="#DFF9BA" stroke-width="20" stroke-linecap="round" stroke-linejoin="round"/>
</svg>
