<svg width="200" height="164" viewBox="0 0 200 164" fill="none" xmlns="http://www.w3.org/2000/svg">
<path d="M5.33682 107.478L10.4723 96.4688H35.5855L40.7277 107.478H46.0578L25.2207 62.8233H20.8438L0 107.478H5.33682ZM23.0323 69.5564L33.3367 91.6354H12.7278L23.0323 69.5564ZM195.697 105.061V67.2001C195.697 65.8643 194.616 64.7835 193.28 64.7835H170.718C169.382 64.7835 168.301 65.8643 168.301 67.2001V80.6261C168.301 94.0991 164.871 105.061 160.648 105.061H158.232V109.901V117.554H163.072V109.901H190.864H195.16V117.554H200V105.068L195.697 105.061ZM168.033 105.061C171.658 99.3621 173.135 89.5477 173.135 80.6261V69.6168H190.857V105.061H168.033Z" fill="#DFF9BA"/>
<path d="M128.584 52.3644C125.675 52.3644 123.124 51.6484 120.931 50.2163C118.783 48.7394 116.859 46.7927 115.158 44.376C113.457 41.9146 111.824 39.207 110.258 36.2533L112.809 34.7764C113.972 36.8799 115.158 38.9161 116.367 40.8852C117.619 42.8096 119.052 44.3984 120.663 45.6514C122.274 46.8598 124.243 47.464 126.57 47.464C128.047 47.464 129.434 47.1507 130.732 46.5241C132.075 45.8528 133.171 44.9354 134.022 43.7718C134.872 42.6082 135.297 41.2433 135.297 39.6769C135.297 38.0211 134.737 36.7679 133.619 35.9176C132.545 35.0673 131.269 34.6421 129.793 34.6421C128.539 34.6421 127.242 34.9107 125.899 35.4477C124.556 35.94 123.37 36.4323 122.341 36.9246L119.455 32.0241C120.663 31.3528 121.983 30.7486 123.415 30.2116C124.892 29.6745 126.391 29.406 127.913 29.406C128.137 29.406 128.338 29.406 128.517 29.406C129.725 28.6452 130.642 27.7502 131.269 26.7208C131.896 25.6467 132.209 24.5727 132.209 23.4986C132.209 22.335 131.851 21.3729 131.135 20.612C130.419 19.8512 129.278 19.4708 127.712 19.4708C126.458 19.4708 124.847 19.7841 122.878 20.4106C120.909 20.9924 119.007 21.8651 117.172 23.0287L114.218 17.9939C116.187 16.8304 118.156 15.98 120.126 15.443C122.14 14.906 123.862 14.6375 125.295 14.6375C127.353 14.6375 129.098 15.085 130.531 15.98C131.963 16.8304 133.126 17.9268 134.022 19.2694C134.917 20.612 135.566 21.9994 135.969 23.4315C136.416 24.8188 136.64 26.0495 136.64 27.1236C136.64 27.8397 136.528 28.6005 136.304 29.406C136.08 30.2116 135.543 31.0843 134.693 32.0241C134.962 32.2479 135.252 32.5611 135.566 32.9639C136.326 33.8142 137.199 34.575 138.184 35.2463C139.213 35.9176 140.712 36.2533 142.682 36.2533C145.143 36.2533 147.224 35.5148 148.925 34.038L149.059 20.5449H141.876L139.594 16.1814V15.5101H160.27L162.552 19.8736V20.5449H154.698L154.832 57.8019H154.161L148.79 54.3112L148.857 40.8181C148.499 40.9524 148.119 41.0419 147.716 41.0866C147.313 41.1314 146.888 41.1537 146.441 41.1537C145.188 41.1537 143.934 40.93 142.682 40.4824C141.473 40.035 140.421 39.5203 139.526 38.9385L139.258 39.0727C139.526 39.6993 139.705 40.3482 139.795 41.0195C139.929 41.6461 139.996 42.2502 139.996 42.832C139.996 44.6669 139.481 46.3004 138.452 47.7325C137.468 49.1646 136.125 50.3058 134.425 51.1561C132.723 51.9617 130.777 52.3644 128.584 52.3644Z" fill="#DFF9BA"/>
<path d="M62.0208 0.681251C61.7791 1.40625 61.5375 2.49376 61.3562 3.33959C60.3291 8.41461 59.302 17.9605 59.302 26.2376C59.302 34.0918 60.9937 41.3418 62.8666 47.021L58.4562 48.3502C56.7041 42.9731 55.0729 34.3939 55.0729 26.7209C55.0729 18.4438 56.2812 8.65628 56.825 3.46043C56.9458 2.37292 57.0062 1.28542 57.0062 0.5L62.0208 0.681251ZM52.2937 8.11253C62.9271 8.11253 73.4396 7.26669 81.7771 5.39377L81.8375 9.86462C73.1375 11.375 61.2354 12.2813 52.2333 12.2813C49.6354 12.2813 44.9228 12.0396 42.4457 11.9188L42.3249 7.38752C44.4395 7.75003 49.6958 8.11253 52.2937 8.11253ZM77.4875 15.2417C77.125 16.0271 76.5813 17.6584 76.2188 18.6251C72.6542 29.8022 66.6125 38.2001 60.2687 43.0939C56.402 46.0543 51.5687 48.2897 47.2791 48.2897C43.2916 48.2897 40.1499 45.8731 40.1499 40.7376C40.1499 32.4605 47.8228 23.9417 56.7645 20.498C60.8125 18.9271 65.7062 18.0209 69.6333 18.0209C81.0521 18.0209 88.2417 24.6667 88.2417 33.1251C88.2417 41.7647 82.5021 49.3168 68.4854 51.5523L65.8875 47.5043C76.7625 46.296 83.5292 40.6772 83.5292 32.8834C83.5292 27.023 78.575 21.8876 69.5729 21.8876C64.4979 21.8876 60.0271 23.3376 56.9458 24.7272C50.1187 27.748 44.6812 34.3939 44.6812 39.9522C44.6812 42.4293 45.8895 43.6376 48.1249 43.6376C51.1458 43.6376 55.0729 41.946 58.9395 38.5626C64.3166 33.8501 69.2708 27.3251 72.05 17.5376C72.2917 16.6313 72.5938 15 72.6542 14.0334L77.4875 15.2417Z" fill="#DFF9BA"/>
<path d="M99.1597 161.374C121.63 161.374 139.847 143.158 139.847 120.687C139.847 98.2161 121.63 80 99.1597 80C76.689 80 58.4729 98.2161 58.4729 120.687C58.4729 143.158 76.689 161.374 99.1597 161.374Z" fill="url(#paint0_linear_20_442)"/>
<mask id="mask0_20_442" style="mask-type:alpha" maskUnits="userSpaceOnUse" x="58" y="82" width="82" height="82">
<path d="M98.6868 163.374C121.158 163.374 139.374 145.158 139.374 122.687C139.374 100.216 121.158 82 98.6868 82C76.2161 82 58 100.216 58 122.687C58 145.158 76.2161 163.374 98.6868 163.374Z" fill="#5BAED1"/>
</mask>
<g mask="url(#mask0_20_442)">
<mask id="mask1_20_442" style="mask-type:luminance" maskUnits="userSpaceOnUse" x="61" y="80" width="82" height="83">
<path d="M101.977 162.14C124.448 162.14 142.664 143.924 142.664 121.453C142.664 98.9823 124.448 80.7662 101.977 80.7662C79.5061 80.7662 61.29 98.9823 61.29 121.453C61.29 143.924 79.5061 162.14 101.977 162.14Z" fill="white"/>
</mask>
<g mask="url(#mask1_20_442)">
<g style="mix-blend-mode:darken" opacity="0.2">
<path d="M96.1103 81.189C96.1103 81.189 99.4787 91.0907 97.3261 94.452C95.1735 97.8132 92.1547 102.617 87.3274 103.207C82.5001 103.797 80.5866 100.483 77.2357 103.813C73.8848 107.142 72.6921 111.736 73.6488 114.341C74.9256 117.223 76.3627 120.032 77.9533 122.753C77.9533 122.753 78.43 128.939 77.7149 130.117C76.9997 131.294 77.4765 133.136 71.0186 135.303C64.5608 137.47 51.8874 132.505 51.8874 132.505L43.9961 94.4551L77.7173 72.2249L96.1103 81.189Z" fill="black"/>
</g>
<g style="mix-blend-mode:darken" opacity="0.2">
<path d="M168.984 119.001C168.984 119.001 159.959 124.287 156.236 122.854C152.512 121.421 147.198 119.426 145.655 114.815C144.112 110.204 146.971 107.663 143.037 105.053C139.104 102.443 134.363 102.192 132.003 103.651C129.436 105.48 126.973 107.452 124.626 109.556C124.626 109.556 118.662 111.266 117.364 110.8C116.066 110.333 114.359 111.173 110.939 105.281C107.519 99.3889 106.954 68.8796 106.954 68.8796L145.534 70.6142L174.075 99.1863L168.984 119.001Z" fill="black"/>
</g>
<g style="mix-blend-mode:darken" opacity="0.2">
<path d="M95.256 124.363C94.3493 123.255 93.7986 120.256 94.157 118.745C94.5154 117.234 95.0113 115.074 96.2231 114.65C97.4348 114.227 98.1301 115.571 98.7968 114.031C99.4178 112.568 99.5254 110.939 99.1019 109.407C98.7007 108.329 97.4912 105.971 97.4912 105.971C97.2773 104.933 97.1521 103.878 97.117 102.819C97.1158 102.32 97.2471 101.83 97.4976 101.399C97.7481 100.967 98.1087 100.611 98.5425 100.365C100.086 99.2078 103.658 100.873 103.658 100.873C103.658 100.873 108.656 112.762 107.949 116.833C107.393 120.039 103.759 127.06 100.54 127.53C99.0201 127.753 96.2326 125.555 95.256 124.363Z" fill="black"/>
</g>
</g>
<path d="M92.8203 82.422C92.8203 82.422 96.1887 92.3237 94.0361 95.6849C91.8835 99.0462 88.8647 103.851 84.0374 104.438C79.2101 105.024 77.2967 101.713 73.9458 105.042C70.5949 108.372 69.4022 112.965 70.3589 115.571C71.6359 118.453 73.0729 121.261 74.6633 123.983C74.6633 123.983 75.1401 130.169 74.4249 131.347C73.7097 132.524 74.1865 134.366 67.7287 136.533C61.2708 138.7 48.5983 133.734 48.5983 133.734L40.7085 95.6849L74.4273 73.4579L92.8203 82.422Z" fill="url(#paint1_linear_20_442)"/>
<path d="M165.694 120.234C165.694 120.234 156.67 125.521 152.946 124.087C149.221 122.653 143.908 120.659 142.365 116.048C140.821 111.437 143.681 108.896 139.747 106.286C135.814 103.676 131.073 103.425 128.713 104.884C126.146 106.714 123.683 108.685 121.336 110.789C121.336 110.789 115.371 112.499 114.074 112.03C112.777 111.561 111.069 112.404 107.649 106.512C104.23 100.619 103.664 70.107 103.664 70.107L142.244 71.8416L170.786 100.414L165.694 120.234Z" fill="url(#paint2_linear_20_442)"/>
<path d="M91.9659 125.596C91.0593 124.488 90.5086 121.489 90.867 119.978C91.2254 118.467 91.722 116.307 92.933 115.883C94.144 115.46 94.8401 116.804 95.5067 115.264C96.1275 113.801 96.2353 112.172 95.8127 110.64C95.4106 109.562 94.2012 107.204 94.2012 107.204C93.9875 106.165 93.8626 105.111 93.8277 104.051C93.8261 103.553 93.9573 103.063 94.2079 102.631C94.4584 102.2 94.8192 101.843 95.2533 101.598C96.7956 100.441 100.368 102.106 100.368 102.106C100.368 102.106 105.366 113.995 104.659 118.066C104.103 121.272 100.469 128.293 97.2502 128.763C95.7301 128.986 92.9425 126.788 91.9659 125.596Z" fill="url(#paint3_linear_20_442)"/>
<path d="M130.258 146.021C131.829 147.248 133.46 151.722 131.807 153.844C130.155 155.965 127.839 158.996 123.849 159.619C119.86 160.242 118.134 158.38 115.487 160.551C112.839 162.722 112.031 165.524 112.932 167.019C114.134 168.69 115.444 170.28 116.852 171.781C116.852 171.781 117.501 175.436 116.952 176.177C116.403 176.917 116.877 177.986 111.596 179.643C106.315 181.299 81.1426 179.687 81.1426 179.687L87.4717 156.869C87.4717 156.869 106.964 143.144 114.602 141.73C118.592 140.992 127.06 143.523 130.258 146.021Z" fill="url(#paint4_linear_20_442)"/>
<g style="mix-blend-mode:darken" opacity="0.2">
<path d="M98.6838 163.373C106.906 163.374 114.936 160.883 121.715 156.229C128.494 151.575 133.703 144.977 136.657 137.303C139.61 129.629 140.17 121.241 138.261 113.243C136.352 105.245 132.064 98.0133 125.963 92.5009C132.734 99.9714 136.478 109.697 136.464 119.78C136.464 142.251 115.288 162.953 92.8171 162.953" fill="black"/>
</g>
<path d="M85.0847 89.7952C84.0513 89.5786 82.9834 89.5866 81.9534 89.8187C80.9234 90.0508 79.9553 90.5016 79.1147 91.1405C75.9434 93.3376 76.8826 95.0874 78.0022 95.6698C79.1219 96.2523 81.6432 95.8486 82.611 96.1625C83.5789 96.4764 84.0954 96.2984 85.571 95.6698C87.0466 95.0413 85.049 94.0345 86.2822 92.8338C87.5154 91.6332 88.6898 91.1993 87.5154 90.4079C86.7983 89.9335 85.941 89.7174 85.0847 89.7952Z" fill="url(#paint5_linear_20_442)"/>
<g style="mix-blend-mode:darken" opacity="0.2">
<path d="M79.5582 91.5593C80.3988 90.9204 81.3669 90.4696 82.3969 90.2375C83.4269 90.0054 84.4948 89.9974 85.5282 90.214C86.384 90.1363 87.2408 90.3524 87.9573 90.8266L87.9716 90.8378C87.8657 90.6603 87.7168 90.5125 87.5386 90.4079C86.8221 89.934 85.9657 89.718 85.1102 89.7952C84.0768 89.5786 83.009 89.5866 81.9789 89.8187C80.9489 90.0508 79.9808 90.5016 79.1403 91.1405C76.2566 93.1382 76.7731 94.7624 77.729 95.4791C77.114 94.6432 77.1442 93.2312 79.5582 91.5593Z" fill="black"/>
</g>
</g>
<defs>
<linearGradient id="paint0_linear_20_442" x1="99.1597" y1="80" x2="99.1597" y2="161.374" gradientUnits="userSpaceOnUse">
<stop stop-color="#0072FF"/>
<stop offset="1" stop-color="#1E1E1E"/>
</linearGradient>
<linearGradient id="paint1_linear_20_442" x1="67.7317" y1="73.4579" x2="67.7317" y2="137.08" gradientUnits="userSpaceOnUse">
<stop stop-color="#799F0C"/>
<stop offset="1" stop-color="#6A9113"/>
</linearGradient>
<linearGradient id="paint2_linear_20_442" x1="137.225" y1="70.107" x2="137.225" y2="124.334" gradientUnits="userSpaceOnUse">
<stop stop-color="#799F0C"/>
<stop offset="1" stop-color="#6A9113"/>
</linearGradient>
<linearGradient id="paint3_linear_20_442" x1="97.742" y1="101.189" x2="97.742" y2="128.779" gradientUnits="userSpaceOnUse">
<stop stop-color="#799F0C"/>
<stop offset="1" stop-color="#6A9113"/>
</linearGradient>
<linearGradient id="paint4_linear_20_442" x1="106.821" y1="141.6" x2="106.821" y2="180.391" gradientUnits="userSpaceOnUse">
<stop stop-color="#799F0C"/>
<stop offset="1" stop-color="#6A9113"/>
</linearGradient>
<linearGradient id="paint5_linear_20_442" x1="82.4746" y1="89.6385" x2="82.4746" y2="96.3141" gradientUnits="userSpaceOnUse">
<stop stop-color="#0072FF"/>
<stop offset="1" stop-color="#1E1E1E"/>
</linearGradient>
</defs>
</svg>
