<svg width="30" height="31" viewBox="0 0 30 31" fill="none" xmlns="http://www.w3.org/2000/svg">
<path d="M18.377 20.66C19.884 19.566 20.792 17.813 20.792 15.92C20.792 12.689 18.162 10.06 14.931 10.06C11.7 10.06 9.071 12.689 9.071 15.92C9.071 17.809 9.975 19.557 11.475 20.653C7.372 22.046 4.571 25.952 4.571 30.42H5.291C5.291 26.006 8.226 22.182 12.428 21.121C12.573 21.085 12.679 20.964 12.698 20.816C12.717 20.668 12.641 20.525 12.51 20.455C10.832 19.557 9.79 17.819 9.79 15.92C9.79 13.086 12.096 10.779 14.931 10.779C17.766 10.779 20.072 13.085 20.072 15.92C20.072 17.819 19.03 19.556 17.352 20.455C17.222 20.524 17.147 20.667 17.164 20.813C17.181 20.96 17.285 21.082 17.429 21.12C21.634 22.247 24.571 26.071 24.571 30.42H25.292C25.291 26.013 22.486 22.108 18.377 20.66ZM0.795 17.42L1.56 15.78H5.301L6.067 17.42H6.861L3.757 10.768H3.105L0 17.42H0.795ZM3.431 11.771L4.966 15.06H1.896L3.431 11.771ZM29.152 17.06V11.42C29.152 11.221 28.991 11.06 28.792 11.06H25.431C25.232 11.06 25.071 11.221 25.071 11.42V13.42C25.071 15.427 24.56 17.06 23.931 17.06H23.571V17.781V18.921H24.292V17.781H28.432H29.072V18.921H29.793V17.061L29.152 17.06ZM25.031 17.06C25.571 16.211 25.791 14.749 25.791 13.42V11.78H28.431V17.06H25.031Z" fill="#6A9113"/>
<path d="M19.1545 9.21001C18.7211 9.21001 18.3411 9.10335 18.0145 8.89001C17.6945 8.67001 17.4078 8.38001 17.1545 8.02001C16.9011 7.65335 16.6578 7.25001 16.4245 6.81001L16.8045 6.59001C16.9778 6.90335 17.1545 7.20668 17.3345 7.50001C17.5211 7.78668 17.7345 8.02335 17.9745 8.21001C18.2145 8.39001 18.5078 8.48001 18.8545 8.48001C19.0745 8.48001 19.2811 8.43335 19.4745 8.34001C19.6745 8.24001 19.8378 8.10335 19.9645 7.93001C20.0911 7.75668 20.1545 7.55335 20.1545 7.32001C20.1545 7.07335 20.0711 6.88668 19.9045 6.76001C19.7445 6.63335 19.5545 6.57001 19.3345 6.57001C19.1478 6.57001 18.9545 6.61001 18.7545 6.69001C18.5545 6.76335 18.3778 6.83668 18.2245 6.91001L17.7945 6.18001C17.9745 6.08001 18.1711 5.99001 18.3845 5.91001C18.6045 5.83001 18.8278 5.79001 19.0545 5.79001C19.0878 5.79001 19.1178 5.79001 19.1445 5.79001C19.3245 5.67668 19.4611 5.54335 19.5545 5.39001C19.6478 5.23001 19.6945 5.07001 19.6945 4.91001C19.6945 4.73668 19.6411 4.59335 19.5345 4.48001C19.4278 4.36668 19.2578 4.31001 19.0245 4.31001C18.8378 4.31001 18.5978 4.35668 18.3045 4.45001C18.0111 4.53668 17.7278 4.66668 17.4545 4.84001L17.0145 4.09001C17.3078 3.91668 17.6011 3.79001 17.8945 3.71001C18.1945 3.63001 18.4511 3.59001 18.6645 3.59001C18.9711 3.59001 19.2311 3.65668 19.4445 3.79001C19.6578 3.91668 19.8311 4.08001 19.9645 4.28001C20.0978 4.48001 20.1945 4.68668 20.2545 4.90001C20.3211 5.10668 20.3545 5.29001 20.3545 5.45001C20.3545 5.55668 20.3378 5.67001 20.3045 5.79001C20.2711 5.91001 20.1911 6.04001 20.0645 6.18001C20.1045 6.21335 20.1478 6.26001 20.1945 6.32001C20.3078 6.44668 20.4378 6.56001 20.5845 6.66001C20.7378 6.76001 20.9611 6.81001 21.2545 6.81001C21.6211 6.81001 21.9311 6.70001 22.1845 6.48001L22.2045 4.47001H21.1345L20.7945 3.82001V3.72001H23.8745L24.2145 4.37001V4.47001H23.0445L23.0645 10.02H22.9645L22.1645 9.50001L22.1745 7.49001C22.1211 7.51001 22.0645 7.52335 22.0045 7.53001C21.9445 7.53668 21.8811 7.54001 21.8145 7.54001C21.6278 7.54001 21.4411 7.50668 21.2545 7.44001C21.0745 7.37335 20.9178 7.29668 20.7845 7.21001L20.7445 7.23001C20.7845 7.32335 20.8111 7.42001 20.8245 7.52001C20.8445 7.61335 20.8545 7.70335 20.8545 7.79001C20.8545 8.06335 20.7778 8.30668 20.6245 8.52001C20.4778 8.73335 20.2778 8.90335 20.0245 9.03001C19.7711 9.15001 19.4811 9.21001 19.1545 9.21001Z" fill="#6A9113"/>
<path d="M9.239 1.511C9.203 1.619 9.167 1.781 9.14 1.907C8.987 2.663 8.834 4.085 8.834 5.318C8.834 6.488 9.086 7.568 9.365 8.414L8.708 8.612C8.447 7.811 8.204 6.533 8.204 5.39C8.204 4.157 8.384 2.699 8.465 1.925C8.483 1.763 8.492 1.601 8.492 1.484L9.239 1.511ZM7.79 2.618C9.374 2.618 10.94 2.492 12.182 2.213L12.191 2.879C10.895 3.104 9.122 3.239 7.781 3.239C7.394 3.239 6.692 3.203 6.323 3.185L6.305 2.51C6.62 2.564 7.403 2.618 7.79 2.618ZM11.543 3.68C11.489 3.797 11.408 4.04 11.354 4.184C10.823 5.849 9.923 7.1 8.978 7.829C8.402 8.27 7.682 8.603 7.043 8.603C6.449 8.603 5.981 8.243 5.981 7.478C5.981 6.245 7.124 4.976 8.456 4.463C9.059 4.229 9.788 4.094 10.373 4.094C12.074 4.094 13.145 5.084 13.145 6.344C13.145 7.631 12.29 8.756 10.202 9.089L9.815 8.486C11.435 8.306 12.443 7.469 12.443 6.308C12.443 5.435 11.705 4.67 10.364 4.67C9.608 4.67 8.942 4.886 8.483 5.093C7.466 5.543 6.656 6.533 6.656 7.361C6.656 7.73 6.836 7.91 7.169 7.91C7.619 7.91 8.204 7.658 8.78 7.154C9.581 6.452 10.319 5.48 10.733 4.022C10.769 3.887 10.814 3.644 10.823 3.5L11.543 3.68Z" fill="#6A9113"/>
</svg>
