<svg width="200" height="163" viewBox="0 0 200 163" fill="none" xmlns="http://www.w3.org/2000/svg">
<path d="M5.33682 106.978L10.4723 95.9688H35.5855L40.7277 106.978H46.0578L25.2207 62.3233H20.8438L0 106.978H5.33682ZM23.0323 69.0564L33.3367 91.1354H12.7278L23.0323 69.0564ZM195.697 104.561V66.7001C195.697 65.3643 194.616 64.2835 193.28 64.2835H170.718C169.382 64.2835 168.301 65.3643 168.301 66.7001V80.1261C168.301 93.5991 164.871 104.561 160.648 104.561H158.232V109.401V117.054H163.072V109.401H190.864H195.16V117.054H200V104.568L195.697 104.561ZM168.033 104.561C171.658 98.8621 173.135 89.0477 173.135 80.1261V69.1168H190.857V104.561H168.033Z" fill="#006241"/>
<path d="M128.584 51.8644C125.675 51.8644 123.124 51.1484 120.931 49.7163C118.783 48.2394 116.859 46.2927 115.158 43.876C113.457 41.4146 111.824 38.707 110.258 35.7533L112.809 34.2764C113.972 36.3799 115.158 38.4161 116.367 40.3852C117.619 42.3096 119.052 43.8984 120.663 45.1514C122.274 46.3598 124.243 46.964 126.57 46.964C128.047 46.964 129.434 46.6507 130.732 46.0241C132.075 45.3528 133.171 44.4354 134.022 43.2718C134.872 42.1082 135.297 40.7433 135.297 39.1769C135.297 37.5211 134.737 36.2679 133.619 35.4176C132.545 34.5673 131.269 34.1421 129.793 34.1421C128.539 34.1421 127.242 34.4107 125.899 34.9477C124.556 35.44 123.37 35.9323 122.341 36.4246L119.455 31.5241C120.663 30.8528 121.983 30.2486 123.415 29.7116C124.892 29.1745 126.391 28.906 127.913 28.906C128.137 28.906 128.338 28.906 128.517 28.906C129.725 28.1452 130.642 27.2502 131.269 26.2208C131.896 25.1467 132.209 24.0727 132.209 22.9986C132.209 21.835 131.851 20.8729 131.135 20.112C130.419 19.3512 129.278 18.9708 127.712 18.9708C126.458 18.9708 124.847 19.2841 122.878 19.9106C120.909 20.4924 119.007 21.3651 117.172 22.5287L114.218 17.4939C116.187 16.3304 118.156 15.48 120.126 14.943C122.14 14.406 123.862 14.1375 125.295 14.1375C127.353 14.1375 129.098 14.585 130.531 15.48C131.963 16.3304 133.126 17.4268 134.022 18.7694C134.917 20.112 135.566 21.4994 135.969 22.9315C136.416 24.3188 136.64 25.5495 136.64 26.6236C136.64 27.3397 136.528 28.1005 136.304 28.906C136.08 29.7116 135.543 30.5843 134.693 31.5241C134.962 31.7479 135.252 32.0611 135.566 32.4639C136.326 33.3142 137.199 34.075 138.184 34.7463C139.213 35.4176 140.712 35.7533 142.682 35.7533C145.143 35.7533 147.224 35.0148 148.925 33.538L149.059 20.0449H141.876L139.594 15.6814V15.0101H160.27L162.552 19.3736V20.0449H154.698L154.832 57.3019H154.161L148.79 53.8112L148.857 40.3181C148.499 40.4524 148.119 40.5419 147.716 40.5866C147.313 40.6314 146.888 40.6537 146.441 40.6537C145.188 40.6537 143.934 40.43 142.682 39.9824C141.473 39.535 140.421 39.0203 139.526 38.4385L139.258 38.5727C139.526 39.1993 139.705 39.8482 139.795 40.5195C139.929 41.1461 139.996 41.7502 139.996 42.332C139.996 44.1669 139.481 45.8004 138.452 47.2325C137.468 48.6646 136.125 49.8058 134.425 50.6561C132.723 51.4617 130.777 51.8644 128.584 51.8644Z" fill="#006241"/>
<path d="M62.0208 0.181251C61.7791 0.906254 61.5375 1.99376 61.3562 2.83959C60.3291 7.91461 59.302 17.4605 59.302 25.7376C59.302 33.5918 60.9937 40.8418 62.8666 46.521L58.4562 47.8502C56.7041 42.4731 55.0729 33.8939 55.0729 26.2209C55.0729 17.9438 56.2812 8.15628 56.825 2.96043C56.9458 1.87292 57.0062 0.785419 57.0062 0L62.0208 0.181251ZM52.2937 7.61253C62.9271 7.61253 73.4396 6.76669 81.7771 4.89377L81.8375 9.36462C73.1375 10.875 61.2354 11.7813 52.2333 11.7813C49.6354 11.7813 44.9228 11.5396 42.4457 11.4188L42.3249 6.88752C44.4395 7.25003 49.6958 7.61253 52.2937 7.61253ZM77.4875 14.7417C77.125 15.5271 76.5813 17.1584 76.2188 18.1251C72.6542 29.3022 66.6125 37.7001 60.2687 42.5939C56.402 45.5543 51.5687 47.7897 47.2791 47.7897C43.2916 47.7897 40.1499 45.3731 40.1499 40.2376C40.1499 31.9605 47.8228 23.4417 56.7645 19.998C60.8125 18.4271 65.7062 17.5209 69.6333 17.5209C81.0521 17.5209 88.2417 24.1667 88.2417 32.6251C88.2417 41.2647 82.5021 48.8168 68.4854 51.0523L65.8875 47.0043C76.7625 45.796 83.5292 40.1772 83.5292 32.3834C83.5292 26.523 78.575 21.3876 69.5729 21.3876C64.4979 21.3876 60.0271 22.8376 56.9458 24.2272C50.1187 27.248 44.6812 33.8939 44.6812 39.4522C44.6812 41.9293 45.8895 43.1376 48.1249 43.1376C51.1458 43.1376 55.0729 41.446 58.9395 38.0626C64.3166 33.3501 69.2708 26.8251 72.05 17.0376C72.2917 16.1313 72.5938 14.5 72.6542 13.5334L77.4875 14.7417Z" fill="#006241"/>
<path d="M99.685 162.87C122.155 162.87 140.37 144.655 140.37 122.185C140.37 99.7153 122.155 81.5 99.685 81.5C77.2153 81.5 59 99.7153 59 122.185C59 144.655 77.2153 162.87 99.685 162.87Z" fill="url(#paint0_linear_20_447)"/>
<mask id="mask0_20_447" style="mask-type:alpha" maskUnits="userSpaceOnUse" x="59" y="81" width="82" height="82">
<path d="M99.685 162.87C122.155 162.87 140.37 144.655 140.37 122.185C140.37 99.7153 122.155 81.5 99.685 81.5C77.2153 81.5 59 99.7153 59 122.185C59 144.655 77.2153 162.87 99.685 162.87Z" fill="#5BAED1"/>
</mask>
<g mask="url(#mask0_20_447)">
<mask id="mask1_20_447" style="mask-type:luminance" maskUnits="userSpaceOnUse" x="62" y="80" width="82" height="82">
<path d="M102.975 161.636C125.445 161.636 143.66 143.421 143.66 120.951C143.66 98.4816 125.445 80.2663 102.975 80.2663C80.5053 80.2663 62.29 98.4816 62.29 120.951C62.29 143.421 80.5053 161.636 102.975 161.636Z" fill="white"/>
</mask>
<g mask="url(#mask1_20_447)">
<g style="mix-blend-mode:darken" opacity="0.2">
<path d="M97.1087 80.689C97.1087 80.689 100.477 90.5903 98.3244 93.9514C96.1719 97.3125 93.1533 102.117 88.3262 102.706C83.4991 103.296 81.5857 99.9823 78.235 103.312C74.8842 106.641 73.6915 111.234 74.6482 113.84C75.925 116.722 77.362 119.53 78.9525 122.251C78.9525 122.251 79.4292 128.437 78.7141 129.615C77.999 130.792 78.4757 132.634 72.0182 134.801C65.5606 136.968 52.8878 132.002 52.8878 132.002L44.9968 93.9546L78.7165 71.7253L97.1087 80.689Z" fill="black"/>
</g>
<g style="mix-blend-mode:darken" opacity="0.2">
<path d="M169.979 118.499C169.979 118.499 160.955 123.786 157.231 122.352C153.508 120.919 148.194 118.924 146.651 114.313C145.108 109.702 147.967 107.162 144.033 104.552C140.1 101.942 135.36 101.691 133 103.15C130.433 104.979 127.97 106.951 125.623 109.055C125.623 109.055 119.659 110.765 118.361 110.298C117.064 109.832 115.356 110.672 111.936 104.78C108.516 98.8882 107.951 68.3802 107.951 68.3802L146.53 70.1147L175.07 98.6855L169.979 118.499Z" fill="black"/>
</g>
<g style="mix-blend-mode:darken" opacity="0.2">
<path d="M96.2542 123.861C95.3476 122.753 94.7969 119.755 95.1553 118.243C95.5137 116.732 96.0095 114.572 97.2212 114.149C98.433 113.725 99.1282 115.07 99.7949 113.529C100.416 112.067 100.523 110.437 100.1 108.906C99.6987 107.828 98.4894 105.47 98.4894 105.47C98.2754 104.432 98.1502 103.377 98.1152 102.318C98.114 101.819 98.2453 101.329 98.4958 100.898C98.7462 100.467 99.1068 100.11 99.5406 99.8639C101.084 98.707 104.656 100.372 104.656 100.372C104.656 100.372 109.653 112.261 108.947 116.332C108.391 119.537 104.757 126.558 101.538 127.028C100.018 127.251 97.2307 125.053 96.2542 123.861Z" fill="black"/>
</g>
</g>
<path d="M93.8187 81.9219C93.8187 81.9219 97.187 91.8232 95.0345 95.1843C92.8819 98.5454 89.8633 103.35 85.0362 103.937C80.2091 104.523 78.2958 101.212 74.945 104.541C71.5943 107.871 70.4016 112.464 71.3583 115.07C72.6352 117.951 74.0722 120.76 75.6625 123.481C75.6625 123.481 76.1393 129.667 75.4241 130.844C74.709 132.022 75.1858 133.864 68.7282 136.031C62.2706 138.197 49.5987 133.232 49.5987 133.232L41.7092 95.1843L75.4266 72.9583L93.8187 81.9219Z" fill="url(#paint1_linear_20_447)"/>
<path d="M166.689 119.732C166.689 119.732 157.666 125.019 153.941 123.585C150.217 122.151 144.904 120.157 143.361 115.546C141.818 110.935 144.677 108.395 140.743 105.785C136.81 103.175 132.07 102.924 129.71 104.383C127.143 106.212 124.68 108.184 122.333 110.288C122.333 110.288 116.368 111.998 115.071 111.529C113.774 111.06 112.066 111.902 108.647 106.01C105.228 100.119 104.661 69.6075 104.661 69.6075L143.24 71.3421L171.781 99.9129L166.689 119.732Z" fill="url(#paint2_linear_20_447)"/>
<path d="M92.9644 125.094C92.0578 123.986 91.5072 120.988 91.8655 119.476C92.2239 117.965 92.7205 115.805 93.9315 115.382C95.1424 114.958 95.8384 116.303 96.5051 114.762C97.1258 113.3 97.2336 111.67 96.811 110.139C96.4089 109.061 95.1996 106.703 95.1996 106.703C94.9859 105.664 94.861 104.61 94.8261 103.55C94.8245 103.052 94.9557 102.562 95.2063 102.13C95.4568 101.699 95.8176 101.342 96.2516 101.097C97.7939 99.9399 101.366 101.605 101.366 101.605C101.366 101.605 106.363 113.494 105.657 117.565C105.101 120.77 101.467 127.791 98.2484 128.261C96.7284 128.484 93.941 126.286 92.9644 125.094Z" fill="url(#paint3_linear_20_447)"/>
<path d="M131.254 145.518C132.825 146.746 134.457 151.219 132.804 153.341C131.151 155.462 128.836 158.493 124.846 159.116C120.857 159.739 119.132 157.877 116.484 160.048C113.836 162.218 113.028 165.02 113.929 166.516C115.131 168.186 116.441 169.776 117.849 171.277C117.849 171.277 118.498 174.932 117.949 175.672C117.4 176.413 117.875 177.482 112.594 179.138C107.313 180.795 82.1414 179.183 82.1414 179.183L88.4702 156.366C88.4702 156.366 107.962 142.642 115.599 141.227C119.589 140.489 128.056 143.02 131.254 145.518Z" fill="url(#paint4_linear_20_447)"/>
<g style="mix-blend-mode:darken" opacity="0.2">
<path d="M99.6821 162.869C107.904 162.87 115.934 160.379 122.712 155.726C129.49 151.072 134.7 144.474 137.653 136.8C140.607 129.127 141.166 120.739 139.257 112.741C137.348 104.744 133.061 97.5126 126.96 92.0004C133.731 99.4706 137.475 109.196 137.46 119.278C137.46 141.748 116.286 162.45 93.8157 162.45" fill="black"/>
</g>
<path d="M86.0836 89.2949C85.0503 89.0782 83.9824 89.0862 82.9525 89.3183C81.9225 89.5504 80.9545 90.0012 80.1139 90.6401C76.9427 92.8371 77.8819 94.5868 79.0015 95.1692C80.121 95.7516 82.6422 95.348 83.61 95.6618C84.5778 95.9757 85.0943 95.7977 86.5699 95.1692C88.0454 94.5407 86.0479 93.5339 87.2811 92.3333C88.5142 91.1327 89.6886 90.6989 88.5142 89.9075C87.7971 89.4331 86.9399 89.217 86.0836 89.2949Z" fill="url(#paint5_linear_20_447)"/>
<g style="mix-blend-mode:darken" opacity="0.2">
<path d="M80.5571 91.0588C81.3977 90.4199 82.3657 89.9692 83.3957 89.7371C84.4257 89.505 85.4935 89.497 86.5268 89.7136C87.3826 89.6359 88.2393 89.852 88.9559 90.3262L88.9702 90.3373C88.8643 90.1599 88.7153 90.0121 88.5371 89.9075C87.8207 89.4336 86.9644 89.2176 86.1089 89.2949C85.0755 89.0782 84.0077 89.0862 82.9777 89.3183C81.9478 89.5504 80.9797 90.0012 80.1392 90.6401C77.2556 92.6377 77.7721 94.2618 78.728 94.9785C78.113 94.1426 78.1432 92.7306 80.5571 91.0588Z" fill="black"/>
</g>
</g>
<defs>
<linearGradient id="paint0_linear_20_447" x1="99.685" y1="81.5" x2="99.685" y2="162.87" gradientUnits="userSpaceOnUse">
<stop stop-color="#56CCF2"/>
<stop offset="1" stop-color="#0072FF"/>
</linearGradient>
<linearGradient id="paint1_linear_20_447" x1="68.7312" y1="72.9583" x2="68.7312" y2="136.578" gradientUnits="userSpaceOnUse">
<stop stop-color="#799F0C"/>
<stop offset="1" stop-color="#6A9113"/>
</linearGradient>
<linearGradient id="paint2_linear_20_447" x1="138.221" y1="69.6075" x2="138.221" y2="123.832" gradientUnits="userSpaceOnUse">
<stop stop-color="#799F0C"/>
<stop offset="1" stop-color="#6A9113"/>
</linearGradient>
<linearGradient id="paint3_linear_20_447" x1="98.7402" y1="100.688" x2="98.7402" y2="128.277" gradientUnits="userSpaceOnUse">
<stop stop-color="#799F0C"/>
<stop offset="1" stop-color="#6A9113"/>
</linearGradient>
<linearGradient id="paint4_linear_20_447" x1="107.818" y1="141.097" x2="107.818" y2="179.886" gradientUnits="userSpaceOnUse">
<stop stop-color="#799F0C"/>
<stop offset="1" stop-color="#6A9113"/>
</linearGradient>
<linearGradient id="paint5_linear_20_447" x1="83.4736" y1="89.1381" x2="83.4736" y2="95.8134" gradientUnits="userSpaceOnUse">
<stop stop-color="#56CCF2"/>
<stop offset="1" stop-color="#0072FF"/>
</linearGradient>
</defs>
</svg>
