<svg width="200" height="200" viewBox="0 0 200 200" fill="none" xmlns="http://www.w3.org/2000/svg">
<rect x="10" y="10" width="180" height="180" rx="90" fill="#000E5A"/>
<path d="M76.4144 97.5815C76.5064 97.0353 76.5544 96.4761 76.5544 95.9065C76.5544 89.7963 71.0657 84.8431 64.2952 84.8431C62.8681 84.8431 61.4991 85.0654 60.2252 85.47C56.5273 79.6643 49.5864 75.7548 41.6338 75.7548C32.102 75.7548 24.0252 81.3719 21.242 89.1375C9.49319 89.2286 0 97.8503 0 108.474C0 119.155 9.40718 123.515 21.242 123.515H64.2952C74.3072 123.515 84.9307 120.489 84.9307 111.454C84.9307 105.605 81.529 100.474 76.4144 97.5815Z" fill="url(#paint0_linear_33_597)"/>
<path d="M47.4383 25.2754C51.7304 25.2754 55.2099 21.796 55.2099 17.5039C55.2099 13.2117 51.7304 9.7323 47.4383 9.7323C43.1462 9.7323 39.6667 13.2117 39.6667 17.5039C39.6667 21.796 43.1462 25.2754 47.4383 25.2754Z" fill="#F4EBC1"/>
<path d="M79.3877 12.0327C80.023 12.0327 80.5379 11.5177 80.5379 10.8825C80.5379 10.2473 80.023 9.7323 79.3877 9.7323C78.7525 9.7323 78.2375 10.2473 78.2375 10.8825C78.2375 11.5177 78.7525 12.0327 79.3877 12.0327Z" fill="#F4EBC1"/>
<path d="M12.0307 112.203C14.2568 112.203 16.0614 110.399 16.0614 108.172C16.0614 105.946 14.2568 104.142 12.0307 104.142C9.80461 104.142 8 105.946 8 108.172C8 110.399 9.80461 112.203 12.0307 112.203Z" fill="#F4EBC1"/>
<path d="M185.6 103.568C188.621 103.568 191.071 101.119 191.071 98.097C191.071 95.0753 188.621 92.6258 185.6 92.6258C182.578 92.6258 180.128 95.0753 180.128 98.097C180.128 101.119 182.578 103.568 185.6 103.568Z" fill="#F4EBC1"/>
<path d="M168.917 146.744C169.712 146.744 170.357 146.099 170.357 145.304C170.357 144.508 169.712 143.863 168.917 143.863C168.121 143.863 167.476 144.508 167.476 145.304C167.476 146.099 168.121 146.744 168.917 146.744Z" fill="#F4EBC1"/>
<path d="M126.294 25.9977C126.771 25.9977 127.157 21.7449 127.157 16.4988C127.157 11.2528 126.771 7 126.294 7C125.817 7 125.43 11.2528 125.43 16.4988C125.43 21.7449 125.817 25.9977 126.294 25.9977Z" fill="#F4EBC1"/>
<path d="M126.294 17.3622C131.54 17.3622 135.792 16.9756 135.792 16.4988C135.792 16.0219 131.54 15.6354 126.294 15.6354C121.047 15.6354 116.795 16.0219 116.795 16.4988C116.795 16.9756 121.047 17.3622 126.294 17.3622Z" fill="#F4EBC1"/>
<path d="M28.4955 145.889C30.044 144.346 31.1857 142.981 31.0457 142.841C30.9057 142.7 29.537 143.837 27.9885 145.381C26.4401 146.924 25.2983 148.289 25.4383 148.429C25.5783 148.57 26.9471 147.433 28.4955 145.889Z" fill="#F4EBC1"/>
<path d="M27.9866 145.9C29.5351 147.444 30.9038 148.581 31.0438 148.44C31.1838 148.3 30.0421 146.935 28.4936 145.392C26.9452 143.848 25.5764 142.711 25.4364 142.852C25.2964 142.992 26.4382 144.357 27.9866 145.9Z" fill="#F4EBC1"/>
<path d="M116.312 178.19C118.089 178.19 119.531 178.06 119.531 177.899C119.531 177.739 118.089 177.609 116.312 177.609C114.534 177.609 113.093 177.739 113.093 177.899C113.093 178.06 114.534 178.19 116.312 178.19Z" fill="#F4EBC1"/>
<path d="M116.312 181.115C116.472 181.115 116.602 179.675 116.602 177.899C116.602 176.124 116.472 174.684 116.312 174.684C116.151 174.684 116.021 176.124 116.021 177.899C116.021 179.675 116.151 181.115 116.312 181.115Z" fill="#F4EBC1"/>
<path d="M162.717 86.9442C160.53 86.9442 158.758 86.7854 158.758 86.585C158.762 86.3881 160.534 86.2224 162.724 86.2259C164.903 86.2259 166.679 86.3846 166.679 86.585C166.671 86.785 164.903 86.9472 162.717 86.9442Z" fill="#F4EBC1"/>
<path d="M162.717 90.5429C162.915 90.5429 163.076 88.7707 163.076 86.5846C163.076 84.3984 162.915 82.6262 162.717 82.6262C162.518 82.6262 162.357 84.3984 162.357 86.5846C162.357 88.7707 162.518 90.5429 162.717 90.5429Z" fill="#F4EBC1"/>
<path d="M139.54 103.722C131.684 126.577 106.318 137.873 83.2923 130.075C60.2663 122.277 47.8976 98.2024 55.7537 75.347C63.6098 52.4915 88.6708 39.6415 111.697 47.4393C134.723 55.2371 147.396 80.8663 139.54 103.722Z" fill="#FFB600"/>
<path d="M132.256 104.961C124.821 126.592 101.305 137.448 80.0989 130.267C58.8932 123.085 47.6584 100.46 55.0935 78.8294C62.5288 57.1985 85.7759 44.8771 106.982 52.0585C128.187 59.24 139.691 83.3298 132.256 104.961Z" fill="#FFCE00"/>
<path d="M60.3674 99.8061C59.8942 93.5911 64.7581 88.355 71.0196 87.8853C77.281 87.4156 82.6781 91.8821 83.1513 98.0971C83.6245 104.312 78.9918 109.886 72.7304 110.356C66.4689 110.826 60.8406 106.021 60.3674 99.8061Z" fill="#FFA300"/>
<path opacity="0.06" d="M78.9414 96.7912C79.4146 103.006 74.782 108.581 68.5205 109.05C67.8272 109.102 67.1416 109.089 66.4699 109.017C68.3386 110.019 70.4937 110.524 72.7298 110.356C78.9912 109.887 83.6239 104.312 83.1507 98.0973C82.7333 92.6157 78.4854 88.4951 73.1927 87.921C76.3876 89.6505 78.6431 92.8731 78.9414 96.7912Z" fill="#040000"/>
<path d="M105.915 69.2962C107.105 70.6293 106.909 72.6551 105.566 73.8358C104.223 75.0167 102.217 74.9258 101.028 73.5926C99.8381 72.2595 99.922 70.1965 101.265 69.0157C102.608 67.8352 104.725 67.9631 105.915 69.2962Z" fill="#FFB600"/>
<path d="M101.915 82.2962C103.105 83.6293 102.909 85.6551 101.566 86.8358C100.223 88.0167 98.2175 87.9258 97.0278 86.5926C95.8381 85.2595 95.922 83.1965 97.2651 82.0157C98.608 80.8352 100.725 80.9631 101.915 82.2962Z" fill="#FFB600"/>
<path opacity="0.5" d="M91.5341 124.814C92.2072 125.568 92.0966 126.714 91.3368 127.382C90.5771 128.05 89.4422 127.999 88.7691 127.245C88.0959 126.491 88.1434 125.323 88.9033 124.655C89.6632 123.987 90.8611 124.06 91.5341 124.814Z" fill="white"/>
<path d="M80.1845 76.0059C79.5377 77.8874 77.4497 78.8171 75.5542 78.1753C73.6587 77.5334 72.6406 75.5517 73.2874 73.6702C73.9341 71.7887 75.9971 70.7309 77.8926 71.3728C79.7879 72.0146 80.8312 74.1244 80.1845 76.0059Z" fill="#FFB600"/>
<path opacity="0.5" d="M119.913 76.2992C120.586 77.0535 120.475 78.1996 119.715 78.8676C118.955 79.5358 117.821 79.4843 117.147 78.7301C116.474 77.9758 116.522 76.8086 117.282 76.1404C118.042 75.4726 119.239 75.5449 119.913 76.2992Z" fill="white"/>
<path d="M119.9 101.374C115.504 98.8569 114.198 93.2485 116.734 88.8856C119.271 84.5227 124.733 82.9808 129.129 85.4986C133.524 88.0161 135.163 93.6253 132.627 97.9882C130.091 102.351 124.295 103.892 119.9 101.374Z" fill="#FFA300"/>
<path opacity="0.06" d="M129.62 97.2553C127.771 100.436 124.191 102.114 120.683 101.816C124.97 103.782 130.281 102.182 132.679 98.0566C135.215 93.6937 133.576 88.0846 129.181 85.567C127.967 84.8719 126.672 84.4877 125.38 84.3855C125.63 84.5004 125.878 84.6257 126.123 84.7657C130.518 87.2832 132.157 92.8924 129.62 97.2553Z" fill="#040000"/>
<path d="M83.0084 47.9978C73.2819 50.8853 65.1463 57.4281 60.2214 66.0218C62.2187 66.8711 64.4183 67.3418 66.7285 67.3418C75.8644 67.3418 83.2703 59.9906 83.2703 50.9227C83.2703 49.9241 83.1804 48.9468 83.0084 47.9978Z" fill="#FFA300"/>
<path d="M187.92 120.028C188.051 119.17 188.119 118.291 188.119 117.395C188.119 107.792 180.334 100.007 170.73 100.007C168.706 100.007 166.764 100.356 164.957 100.992C159.712 91.8669 149.867 85.7222 138.587 85.7222C125.066 85.7222 113.61 94.5508 109.662 106.756C92.9972 106.899 79.5317 120.451 79.5317 137.149C79.5317 153.936 92.8752 160.789 109.662 160.789H170.73C184.931 160.789 200 156.032 200 141.832C200 132.638 195.175 124.574 187.92 120.028Z" fill="url(#paint1_linear_33_597)"/>
<circle cx="87.4227" cy="112.302" r="11.0057" fill="white"/>
<path d="M127.655 120.518C126.193 120.518 125.008 119.333 125.008 117.871V114.949C125.008 113.487 126.193 112.302 127.655 112.302C129.117 112.302 130.302 113.487 130.302 114.949V117.871C130.301 119.333 129.116 120.518 127.655 120.518Z" fill="#E2E8EA"/>
<path d="M142.398 120.518C140.937 120.518 139.751 119.333 139.751 117.871V114.949C139.751 113.487 140.936 112.302 142.398 112.302C143.86 112.302 145.045 113.487 145.045 114.949V117.871C145.045 119.333 143.86 120.518 142.398 120.518Z" fill="#E2E8EA"/>
<path d="M135.589 139.712C138.217 139.712 140.611 137.246 140.356 134.837C140.277 134.093 139.763 133.483 139.031 133.483C138.3 133.483 137.707 134.089 137.707 134.837C137.707 136.032 136.757 137.004 135.589 137.004C134.421 137.004 133.471 136.032 133.471 134.837C133.471 134.089 132.878 133.483 132.147 133.483C131.415 133.483 130.822 134.089 130.822 134.837C130.822 137.525 132.96 139.712 135.589 139.712Z" fill="#E2E8EA"/>
<defs>
<linearGradient id="paint0_linear_33_597" x1="42.4552" y1="92.3356" x2="42.4552" y2="123.581" gradientUnits="userSpaceOnUse">
<stop stop-color="white"/>
<stop offset="1" stop-color="#EAF1F4"/>
</linearGradient>
<linearGradient id="paint1_linear_33_597" x1="139.752" y1="111.783" x2="139.752" y2="160.893" gradientUnits="userSpaceOnUse">
<stop stop-color="white"/>
<stop offset="1" stop-color="#EAF1F4"/>
</linearGradient>
</defs>
</svg>
