<svg width="130" height="130" viewBox="0 0 130 130" fill="none" xmlns="http://www.w3.org/2000/svg">
<path d="M67.1309 112.742C34.1743 112.742 25.3688 78.3871 29.3491 55.8776C29.5223 54.8979 30.8065 54.6157 31.3661 55.4383C33.0989 57.9852 34.6409 61.6639 37.1958 61.3446C41.0358 60.8645 43.6962 26.9801 66.455 17.4459C67.1772 17.1434 67.9329 17.7174 67.8536 18.4963C66.7282 29.5379 73.3577 45.3455 85.1028 45.3455C91.8356 45.3455 96.4423 39.9721 98.7442 34.5756C99.4434 32.9364 101.839 33.143 102.24 34.8795C106.347 52.669 117.327 112.742 67.1309 112.742Z" fill="#FF8F1F"/>
<path d="M55.5774 79.6146C56.3524 78.9634 57.5289 79.4103 57.7049 80.4072C58.1166 82.7398 59.4705 86.7486 63.9115 86.7486C69.2537 86.7486 72.8791 72.0486 73.8299 67.7253C73.9863 67.014 74.6795 66.531 75.3932 66.6761C88.7438 69.3906 95.235 112.742 65.8809 112.742C44.5113 112.742 49.3526 84.8439 55.5774 79.6146ZM92.058 32.6667C92.5285 28.9867 85.8106 39.0521 85.8106 39.0521C85.8106 39.0521 90.9322 41.4712 92.058 32.6667ZM24.3678 87.5499C24.5094 85.9833 22.494 81.7888 22.1371 83.4496C21.283 87.423 24.2262 89.1167 24.3678 87.5499Z" fill="#FFB636"/>
<path d="M78.1203 83.0852C77.6198 80.9973 75.8244 85.8469 76.05 87.8223C76.2756 89.7975 79.3178 88.0805 78.1203 83.0852Z" fill="#FFD469"/>
<circle cx="65" cy="65" r="62.5" stroke="#A51313" stroke-width="5"/>
<path d="M23 23L107.853 107.853" stroke="#A51313" stroke-width="5" stroke-linecap="round"/>
</svg>
