<svg width="130" height="130" viewBox="0 0 130 130" fill="none" xmlns="http://www.w3.org/2000/svg">
<g clip-path="url(#clip0_10_70)">
<path d="M52.7365 17.0562L35.8328 46.3317L53.8748 56.7503L63.0041 40.9392L76.7919 17.0562H52.7365Z" fill="#285100"/>
<path d="M76.7981 17.0562H52.741L70.3405 47.5432L63.1703 51.6845L75.443 54.2175L87.7172 56.7534L91.66 44.8576L95.603 32.9588L88.3825 37.1275L76.7981 17.0562Z" fill="#6A9113"/>
<path d="M27.03 104.551H60.8358V83.7202H42.5787H15.0029L27.03 104.551Z" fill="#285100"/>
<path d="M15 83.7141L27.0285 104.551L44.6295 74.0644L51.8011 78.2024L47.8598 66.3054L43.9184 54.4094L31.6443 56.9455L19.3701 59.4815L26.5875 63.6472L15 83.7141Z" fill="#6A9113"/>
<path opacity="0.1" d="M47.3869 83.7202L27.0286 103.899V104.551L39.0541 83.7202H47.3869Z" fill="black"/>
<path d="M115 83.7753L98.0994 54.4982L80.0574 64.9168L89.182 80.7294L102.97 104.606L115 83.7753Z" fill="#285100"/>
<path d="M102.97 104.612L114.997 83.7813H79.795V75.4989L71.4638 84.8615L63.1294 94.2245L71.4638 103.587L79.795 112.944V104.612H102.97Z" fill="#6A9113"/>
<path opacity="0.1" d="M86.7773 76.5609L114.432 84.1048L114.997 83.7752H90.946L86.7773 76.5609Z" fill="black"/>
<path opacity="0.1" d="M60.5996 45.1047L53.3026 17.3825L52.7397 17.0592L64.7651 37.8874L60.5996 45.1047Z" fill="black"/>
</g>
<circle cx="65" cy="65" r="62.5" stroke="#A51313" stroke-width="5"/>
<path d="M23 23L107.853 107.853" stroke="#A51313" stroke-width="5" stroke-linecap="round"/>
<defs>
<clipPath id="clip0_10_70">
<rect width="100" height="100" fill="white" transform="translate(15 15)"/>
</clipPath>
</defs>
</svg>
