<svg width="120" height="120" viewBox="0 0 120 120" fill="none" xmlns="http://www.w3.org/2000/svg">
<path d="M60 110C87.6142 110 110 87.6142 110 60C110 32.3858 87.6142 10 60 10C32.3858 10 10 32.3858 10 60C10 87.6142 32.3858 110 60 110Z" fill="#FFB600"/>
<path d="M56.75 106C82.5693 106 103.5 85.0693 103.5 59.25C103.5 33.4307 82.5693 12.5 56.75 12.5C30.9307 12.5 10 33.4307 10 59.25C10 85.0693 30.9307 106 56.75 106Z" fill="#FFCE00"/>
<path d="M59.9988 60.8859L41.2882 93.2935C46.796 96.4699 53.1854 98.2872 59.9988 98.2872C66.8099 98.2872 73.2016 96.4695 78.7094 93.2935L59.9988 60.8859Z" fill="black"/>
<path d="M60.084 60.741H97.5001C97.4803 46.8992 89.9598 34.8149 78.7946 28.3334L60.084 60.741Z" fill="black"/>
<path d="M59.9138 60.741L41.2029 28.3334C30.0349 34.8149 22.5176 46.8992 22.5 60.741H59.9138Z" fill="black"/>
<path d="M49.0336 61.0073C49.0336 54.9701 53.9295 50.0717 59.9692 50.0717C66.0112 50.0717 70.9049 54.9701 70.9049 61.0073C70.9049 67.0493 66.0112 71.9484 59.9692 71.9484C53.9298 71.9484 49.0336 67.0496 49.0336 61.0073Z" fill="#2B2B2B"/>
</svg>
