<svg width="120" height="120" viewBox="0 0 120 120" fill="none" xmlns="http://www.w3.org/2000/svg">
<g clip-path="url(#clip0_10_35)">
<path d="M45.2838 2.46729L24.9993 37.5979L46.6497 50.1002L57.6049 31.127L74.1503 2.46729H45.2838Z" fill="#285100"/>
<path d="M74.1579 2.46729H45.2893L66.4087 39.0517L57.8045 44.0213L72.5317 47.0609L87.2608 50.104L91.9922 35.829L96.7238 21.5505L88.0591 26.5529L74.1579 2.46729Z" fill="#6A9113"/>
<path d="M14.4359 107.462H55.0029V82.4642H33.0944H0.00341797L14.4359 107.462Z" fill="#285100"/>
<path d="M0 82.4569L14.4342 107.462L35.5554 70.8774L44.1613 75.843L39.4318 61.5666L34.7021 47.2914L19.9732 50.3347L5.2441 53.3778L13.905 58.3767L0 82.4569Z" fill="#6A9113"/>
<path opacity="0.1" d="M38.8641 82.4642L14.4341 106.678V107.462L28.8647 82.4642H38.8641Z" fill="black"/>
<path d="M120 82.5303L99.7193 47.3978L78.0688 59.9002L89.0184 78.8753L105.564 107.528L120 82.5303Z" fill="#285100"/>
<path d="M105.564 107.535L119.996 82.5375H77.7539V72.5986L67.7564 83.8338L57.7551 95.0694L67.7564 106.305L77.7539 117.533V107.535H105.564Z" fill="#6A9113"/>
<path opacity="0.1" d="M86.1328 73.8732L119.319 82.9259L119.996 82.5303H91.1352L86.1328 73.8732Z" fill="black"/>
<path opacity="0.1" d="M54.7194 36.1256L45.963 2.85908L45.2876 2.47107L59.718 27.4649L54.7194 36.1256Z" fill="black"/>
</g>
<defs>
<clipPath id="clip0_10_35">
<rect width="120" height="120" fill="white"/>
</clipPath>
</defs>
</svg>
