<svg width="120" height="120" viewBox="0 0 120 120" fill="none" xmlns="http://www.w3.org/2000/svg">
<path d="M62.8501 67.6642H55.9541V66.1257H62.8501V67.6642Z" fill="#6A9113"/>
<path d="M58.6326 70.3423V63.4474H60.171V70.3423H58.6326Z" fill="#6A9113"/>
<path d="M43.3877 62.7916H41.6573V61.0611H40.6632V62.7916H38.9326V63.7854H40.6632V65.5159H41.6573V63.7854H43.3877V62.7916Z" stroke="#6A9113" stroke-width="1.33333" stroke-miterlimit="10"/>
<path d="M51.899 59.6794C51.899 61.0358 50.7994 62.1354 49.4428 62.1354C48.0862 62.1354 46.9866 61.0358 46.9866 59.6794C46.9866 58.323 48.0862 57.2234 49.4428 57.2234C50.7994 57.2234 51.899 58.323 51.899 59.6794Z" stroke="#6A9113" stroke-width="1.33333" stroke-miterlimit="10"/>
<path d="M49.6804 72.5022C49.6804 73.066 49.223 73.5234 48.6589 73.5234C48.0946 73.5234 47.6375 73.066 47.6375 72.5022C47.6375 71.9383 48.0946 71.4809 48.6589 71.4809C49.223 71.4809 49.6804 71.9383 49.6804 72.5022Z" fill="#6A9113"/>
<path d="M46.2869 48.6285C46.2869 49.1926 45.8295 49.65 45.2654 49.65C44.7013 49.65 44.2441 49.1926 44.2441 48.6285C44.2441 48.0645 44.7013 47.6073 45.2654 47.6073C45.8295 47.6073 46.2869 48.0645 46.2869 48.6285Z" fill="#6A9113"/>
<path d="M29.2462 83.7724C29.2514 83.6546 29.2617 83.5369 29.2772 83.4146C29.421 82.2869 29.6982 81.7344 30.7243 81.2702C34.1644 79.7213 38.4035 80.2082 41.9699 81.0641C43.022 81.3155 44.0869 81.6053 45.1668 81.5442C47.3207 81.4196 49.2872 79.898 50.8596 78.5937C52.1027 77.5633 53.5671 76.4017 55.1857 76.0643C55.68 75.9624 56.5781 75.822 56.6784 76.5127C56.7593 77.0674 56.1653 77.7151 55.8159 78.0683C54.2283 79.6693 52.6527 81.705 50.4597 82.4862C47.9324 83.3874 55.596 81.2408 55.981 81.1094C56.3657 80.9803 60.7195 76.1481 63.7115 75.6137C64.3951 75.4914 65.3051 75.7835 65.0946 76.6327C64.8948 77.4388 63.7606 78.3106 63.1929 78.8631C61.4298 80.575 59.5538 82.2575 59.5538 82.2575C60.8273 81.2838 62.1386 80.3531 63.4696 79.4609C64.5307 78.7476 65.6093 78.057 66.729 77.4388C67.5041 77.0108 68.4975 76.3768 69.4067 76.3089C69.8702 76.2749 70.3351 76.4243 70.5742 76.8682C71.3547 78.3197 68.1877 80.3508 67.2992 81.0256C63.7019 83.7656 57.8437 88.6748 57.5704 88.7994C57.2968 88.9239 34.744 91.6004 31.0259 87.3637C30.6448 86.929 30.081 86.4648 29.7987 85.9598C29.4046 85.2556 29.2112 84.5581 29.2462 83.7724Z" fill="#EDA46E"/>
<path d="M5.00032 106.489C5.0027 106.31 5.01898 106.131 5.05048 105.955C5.34909 104.279 8.38385 101.981 9.5678 100.697C11.4823 98.618 13.3968 96.5393 15.3112 94.4605C17.7061 91.861 20.1011 89.2615 22.496 86.662C22.496 86.662 27.0155 78.852 38.9004 81.0281C40.4959 81.3202 42.0198 81.9022 43.4711 82.6177C44.9126 83.3265 46.1399 84.2549 47.6876 84.6761C49.3871 85.138 51.1082 85.5184 52.8394 85.8422C53.7261 86.0098 54.6156 86.1615 55.5066 86.3019C56.274 86.4242 57.2088 86.7208 57.9798 86.5465C60.999 85.8671 63.4386 84.0511 66.2841 82.9551C67.7693 82.3822 69.3508 82.1128 70.92 81.8478C71.2869 81.7867 71.7013 81.7346 71.9977 81.9588C72.3652 82.2373 72.3563 82.8057 72.1809 83.2314C71.7803 84.2051 70.7912 84.778 69.878 85.2988C67.7096 86.5397 65.6005 87.9232 63.5136 89.2706C61.5667 90.5296 59.6702 91.535 57.3132 91.741C53.4632 92.0739 35.5524 91.8927 33.209 92.8212C32.6662 93.0363 32.2727 93.7246 31.9553 94.173C29.1372 98.1583 27.1903 102.92 25.153 107.329C24.2074 109.376 23.3287 111.455 22.371 113.495C20.9261 116.575 16.8239 115.574 14.1542 114.852C12.0011 114.27 9.93799 113.307 8.20888 111.885C6.77673 110.708 4.9722 108.55 5.00032 106.489Z" fill="#FAB480"/>
<path d="M43.7488 83.0342C45.3959 83.6547 47.2036 83.6343 48.9628 83.6094C50.4231 83.5867 52.0062 82.0537 53.2211 81.2815C54.0453 80.7585 54.9169 80.2218 55.8915 80.1652C56.4927 80.129 57.2331 80.4392 57.2476 81.0415C57.2546 81.3268 57.0893 81.585 56.9304 81.8227C56.3339 82.7149 55.7375 83.6071 55.141 84.5015C53.6556 86.7229 51.6978 88.4937 49.1297 89.3496C47.7491 89.8116 46.3089 90.072 44.9195 90.5045C43.5228 90.9393 42.1268 91.5597 40.6667 91.4669C39.8585 91.4148 39.0812 91.1453 38.3258 90.8532C37.4999 90.5339 36.637 90.1445 36.1562 89.4017C35.6306 88.5888 35.6819 87.5381 35.8338 86.5825C35.9785 85.6722 36.1974 84.7733 36.4877 83.8992C36.6499 83.4101 36.8418 82.9165 37.189 82.5383C39.0066 80.5479 41.861 82.3254 43.7488 83.0342Z" fill="#FAB480"/>
<path d="M91.8114 76.3627C88.3959 80.1458 86.0985 81.5698 81.1903 82.9447C79.3111 83.4713 76.898 82.3302 75.9045 80.7274C71.314 73.3202 67.7026 67.4928 63.112 60.0856C61.7429 57.8766 78.016 47.7917 79.3849 50.0007C83.9754 57.4079 87.5868 63.2353 92.1774 70.6425C93.1712 72.2457 93.119 74.9142 91.8114 76.3627Z" fill="#56AB2F"/>
<path d="M89.1192 65.7068C85.7714 70.4271 78.5335 74.7453 72.8461 75.7917C69.5508 70.4743 68.4032 68.6224 65.108 63.3053C70.3579 62.0508 77.984 57.7542 81.3809 53.2205C84.6764 58.5378 85.824 60.3897 89.1192 65.7068Z" fill="#DEE4E9"/>
<path d="M79.1501 49.6213C78.4385 48.4732 72.6414 47.638 68.1477 50.4227C63.6541 53.2074 62.1653 58.5581 62.8769 59.7062C63.5885 60.8544 67.8082 59.5275 72.3018 56.7428C76.7955 53.9581 79.8614 50.7695 79.1501 49.6213Z" fill="#76B852"/>
<path d="M81.2963 61.9165C80.3547 62.8395 79.8502 63.2657 78.7896 64.0377C78.1157 62.9505 77.7789 62.407 77.105 61.3198C76.1772 61.9952 75.6914 62.3035 74.6855 62.8552C75.3594 63.9424 75.6962 64.4859 76.3701 65.5731C75.2201 66.2037 74.6203 66.4785 73.3855 66.9371C73.9749 67.888 74.2694 68.3636 74.8588 69.3144C76.0936 68.8558 76.6934 68.5811 77.8431 67.9505C78.517 69.0377 78.8538 69.5815 79.5277 70.6684C80.5333 70.1167 81.0194 69.8084 81.9472 69.133C81.2733 68.0458 80.9365 67.502 80.2626 66.4151C81.3233 65.6431 81.8278 65.2168 82.7694 64.2939C82.1803 63.343 81.8858 62.8674 81.2963 61.9165Z" fill="#8DC26F"/>
<path d="M62.7646 37.6931L53.0863 43.691C52.2982 44.1794 51.8811 45.0936 52.0282 46.0089L52.5013 48.4719L54.3288 47.3395L54.0876 46.1632C54.0405 45.8703 54.1741 45.5781 54.4262 45.4218L63.9113 39.5433C64.4222 39.2268 64.5799 38.5557 64.263 38.0448C63.9465 37.5339 63.2755 37.3765 62.7646 37.6931Z" fill="#CCD6DB"/>
<path d="M53.0852 46.2607C53.1666 46.7878 53.3228 47.3188 53.5355 47.8308L54.3284 47.3396L54.0872 46.1633C54.0401 45.8704 54.1737 45.5782 54.4255 45.4219L59.7921 42.096C59.6258 41.6147 59.0561 41.4119 58.6234 41.6802L53.8448 44.6418C53.2939 44.9835 52.9864 45.6197 53.0852 46.2607Z" fill="#ACB9BF"/>
<path d="M71.1091 45.2554C70.5703 44.7996 68.425 45.5086 66.1448 46.9217C63.9367 48.2902 62.3779 49.8383 62.4338 50.5572C62.4329 50.5621 62.4344 50.5683 62.4339 50.5735C62.4403 50.6306 62.4541 50.6843 62.4824 50.7299C64.1942 53.4918 63.462 52.3105 65.1737 55.0724C69.1296 53.8089 70.9817 52.6994 73.9616 49.8173C72.2498 47.0554 72.8964 48.0984 71.1847 45.3365C71.1585 45.2938 71.1336 45.2707 71.1091 45.2554Z" fill="#76B852"/>
<path d="M73.9627 49.8176C74.1109 50.7998 66.5344 55.3349 65.1748 55.0724C63.8009 52.8553 64.8287 54.5139 63.4548 52.2968C65.3498 52.0155 71.2408 48.4509 72.2427 47.042C73.6163 49.2591 72.5885 47.6005 73.9627 49.8176Z" fill="#DEE4E9"/>
<path d="M67.6225 46.7094C66.4385 47.5197 65.8128 47.8787 64.5135 48.4912C62.7811 45.6956 61.9148 44.2982 60.1823 41.5026C61.4816 40.8897 62.1073 40.531 63.2914 39.7208C65.0237 42.5161 65.8898 43.9139 67.6225 46.7094Z" fill="#CCD6DB"/>
<path d="M67.6227 46.7095C66.4386 47.5197 65.813 47.8787 64.5137 48.4913C63.3459 46.6071 62.7622 45.6651 61.5945 43.7809C62.8937 43.168 63.5194 42.8093 64.7035 41.9991C65.8709 43.883 66.4549 44.8253 67.6227 46.7095Z" fill="#ACB9BF"/>
<path d="M69.737 46.8769C67.72 48.496 66.5879 49.1643 64.1914 50.1473C63.3755 48.8307 62.9676 48.1723 62.1514 46.8558C61.6036 45.972 61.9661 44.9337 62.9146 44.4454C63.838 43.9703 64.2864 43.7059 65.1485 43.1281C66.0341 42.5344 67.1491 42.7017 67.6967 43.5855C68.5132 44.902 68.9211 45.5604 69.737 46.8769Z" fill="#DEE4E9"/>
<path d="M63.2891 48.6919C63.65 49.2741 63.8304 49.5652 64.1912 50.1473C66.5875 49.1647 67.7199 48.4963 69.7368 46.877C69.376 46.2948 69.1955 46.0038 68.8347 45.4216C66.8177 47.0407 65.6853 47.709 63.2891 48.6919Z" fill="#56AB2F"/>
<path d="M112.064 17.2135C111.48 16.9996 110.874 16.8435 110.258 16.751C108.86 16.5405 107.772 17.3663 106.506 17.9134C104.041 18.9799 101.575 20.0464 99.1091 21.1129C95.9465 22.4807 92.7842 23.8492 89.6215 25.2165C87.6717 25.0626 85.722 24.9085 83.7723 24.7546C80.5171 24.4977 77.262 24.2406 74.0069 23.9837C73.5112 23.9445 73.0154 23.9053 72.5197 23.8662C72.3336 23.8516 72.1446 23.8255 71.9584 23.822C70.3958 23.7929 68.9179 25.3686 67.7522 26.2422C66.3542 27.2894 64.9567 28.3366 63.559 29.3836C63.1547 29.6865 62.6987 29.9314 62.3264 30.2752C61.9879 30.5881 61.8078 30.9978 61.5596 31.3765C61.1089 32.0652 60.6995 32.7863 60.2763 33.4921C59.3363 35.0598 58.3784 36.6316 57.5616 38.2682C57.4158 38.5603 57.2626 38.8576 57.1645 39.17C56.6951 40.661 60.374 40.3919 62.0088 38.1145C63.6438 35.837 64.8768 32.9308 67.3644 31.6767C69.852 30.4225 72.7258 28.935 72.7258 28.935C70.7441 30.6487 68.7622 32.3624 66.7804 34.0761C66.4633 34.3502 66.1461 34.6243 65.8289 34.8987C64.7909 35.7962 63.9825 36.9197 63.1493 38.0074C61.9974 39.5115 60.8703 41.0355 59.7946 42.595C57.3698 46.1115 58.6088 46.9015 60.8184 45.5421C63.0114 44.1933 68.2647 38.348 68.3427 38.2613C68.9532 37.5817 69.8105 37.4403 70.5683 37.0165C71.366 36.5708 72.1635 36.1249 72.9611 35.6792C73.8854 35.1624 75.0828 34.7149 75.9007 34.036C75.9004 34.0361 66.6104 41.7482 66.6104 41.7482C66.6104 41.7482 60.9566 46.6342 61.4505 48.4354C61.9447 50.2364 70.4087 43.8268 70.4087 43.8268C70.4087 43.8268 78.1169 38.9292 78.1171 38.929C78.0344 38.9817 77.9608 39.0721 77.8891 39.1379C75.4263 41.3943 73.0192 43.642 70.3387 45.6337C69.7356 46.0821 69.1323 46.5302 68.5293 46.9784C68.5293 46.9784 66.711 48.3915 68.3679 48.744C70.0249 49.0966 74.4087 47.0338 75.5186 46.5681C76.6281 46.1023 80.9375 42.984 83.1668 42.4801C85.3957 41.9766 92.5754 41.0838 94.4831 38.6239C96.3908 36.1638 96.3908 36.1638 96.3908 36.1638C101.131 35.0508 105.973 34.367 110.648 32.9765C112.467 32.4352 115.326 32.1093 116.51 30.4552C117.825 28.6197 117.718 25.1612 117.295 23.0809C116.73 20.2994 114.7 18.1774 112.064 17.2135Z" fill="#FAB480"/>
</svg>
