<svg width="120" height="120" viewBox="0 0 120 120" fill="none" xmlns="http://www.w3.org/2000/svg">
<path fill-rule="evenodd" clip-rule="evenodd" d="M90.9168 81.9544C106.433 62.0268 105.031 33.1966 86.7129 14.8775C66.8761 -4.95917 34.7142 -4.95917 14.8776 14.8775C-4.95919 34.7143 -4.95919 66.8759 14.8776 86.7126C33.1967 105.032 62.0271 106.433 81.9547 90.9172C82.0404 91.0143 82.1299 91.1095 82.2226 91.2022L109.161 118.14C111.641 120.62 115.661 120.62 118.14 118.14C120.62 115.661 120.62 111.641 118.14 109.161L91.2025 82.223C91.1092 82.1302 91.014 82.0407 90.9168 81.9544ZM77.733 23.8569C92.6108 38.7344 92.6108 62.8554 77.733 77.7333C62.8557 92.6105 38.7344 92.6105 23.8569 77.7333C8.97936 62.8554 8.97936 38.7344 23.8569 23.8569C38.7344 8.97939 62.8557 8.97939 77.733 23.8569Z" fill="#F1F1F1"/>
</svg>
