<svg width="120" height="120" viewBox="0 0 120 120" fill="none" xmlns="http://www.w3.org/2000/svg">
<path d="M60 110C87.6142 110 110 87.6142 110 60C110 32.3858 87.6142 10 60 10C32.3858 10 10 32.3858 10 60C10 87.6142 32.3858 110 60 110Z" fill="#E03F20"/>
<path d="M56.75 106C82.5693 106 103.5 85.0693 103.5 59.25C103.5 33.4307 82.5693 12.5 56.75 12.5C30.9307 12.5 10 33.4307 10 59.25C10 85.0693 30.9307 106 56.75 106Z" fill="#F95428"/>
<path d="M87.9554 90.3121C87.2947 91.7258 86.0567 92.6101 84.6566 92.9385C85.3087 94.2212 85.4638 95.7397 84.8228 97.1516C83.7136 99.5988 80.8239 100.673 78.3934 99.5614C75.9345 98.4454 74.8582 95.5605 75.9826 93.1185C76.0177 93.0089 76.1184 92.9585 76.1687 92.8556L60.2278 85.688L44.0836 92.4072C44.1362 92.5101 44.2257 92.5627 44.2609 92.6678C45.3109 95.141 44.1624 98.0014 41.6731 99.0519C39.2012 100.083 36.3529 98.9272 35.3118 96.4499C34.7082 95.0095 34.9114 93.5039 35.5983 92.2431C34.2134 91.8758 32.9884 90.943 32.3781 89.5204C31.3477 87.0432 32.4921 84.1824 34.9769 83.1515C37.4488 82.1054 40.2971 83.2585 41.3426 85.7342C41.38 85.8438 41.3689 85.9464 41.4059 86.0475L51.5978 81.8081L41.5284 77.2817C41.4848 77.3802 41.5021 77.4917 41.4496 77.5924C40.3404 80.0352 37.4507 81.1142 35.0095 80.0044C32.5746 78.8884 31.505 76.0035 32.6142 73.5566C33.2596 72.1451 34.5109 71.2672 35.9066 70.9217C35.246 69.6479 35.0887 68.1242 35.7338 66.7153C36.8474 64.2684 39.7327 63.1979 42.1783 64.3032C44.624 65.4196 45.6984 68.3041 44.5714 70.751C44.5366 70.8536 44.4359 70.9132 44.4008 71.0006L60.3395 78.1834L76.473 71.4686C76.4226 71.359 76.3331 71.3064 76.285 71.1972C75.2453 68.7063 76.3986 65.8614 78.8834 64.8194C81.3442 63.7733 84.1929 64.9246 85.2384 67.4155C85.8447 68.8425 85.6385 70.3611 84.9409 71.6219C86.3365 71.994 87.5638 72.9046 88.1741 74.3531C89.2041 76.8222 88.0582 79.663 85.5752 80.7091C83.1011 81.7574 80.255 80.5995 79.2095 78.133C79.1614 78.0304 79.1832 77.9142 79.1458 77.816L68.9584 82.0491L79.0211 86.5792C79.0626 86.4829 79.0518 86.3737 79.0977 86.2686C80.2221 83.8258 83.0967 82.7445 85.5338 83.861C87.9946 84.9803 89.0708 87.8563 87.9554 90.3121ZM76.6325 48.1976C77.8923 49.3507 78.6888 50.9511 78.6888 52.7259C78.6888 55.6652 76.5122 58.0335 73.618 58.7604V60.9662C73.618 64.7724 70.5029 67.8957 66.6923 67.8957H53.8554C50.0444 67.8957 46.9315 64.7724 46.9315 60.9662V58.7689C44.0222 58.042 41.8345 55.6741 41.8345 52.7236C41.8345 50.9381 42.635 49.3377 43.9104 48.1887C41.9263 45.3238 40.7516 41.9261 40.7516 38.261C40.7516 28.1833 49.4908 20 60.2711 20C71.0473 20 79.7976 28.1833 79.7976 38.261C79.8042 41.9305 78.621 45.3279 76.6325 48.1976ZM57.0601 39.5885C57.0601 36.7036 54.6385 34.3686 51.6611 34.3686C48.6947 34.3686 46.2598 36.704 46.2598 39.5885C46.2598 42.4752 48.6947 44.8095 51.6611 44.8095C54.6385 44.8051 57.0601 42.4752 57.0601 39.5885ZM65.9155 54.952L60.6785 46.0859L55.2447 55.1227L60.6264 52.5092L65.9155 54.952ZM74.2849 39.5885C74.2849 36.7036 71.8589 34.3686 68.8929 34.3686C65.9133 34.3686 63.4983 36.704 63.4983 39.5885C63.4983 42.4752 65.9133 44.8095 68.8929 44.8095C71.8656 44.8051 74.2849 42.4752 74.2849 39.5885Z" fill="black"/>
</svg>
