<svg width="120" height="120" viewBox="0 0 120 120" fill="none" xmlns="http://www.w3.org/2000/svg">
<path d="M60.1166 12.013C55.1852 11.5123 51.5305 15.5174 49.9469 20.0232C36.9035 46.0569 23.8691 72.0906 10.8338 98.1243C7.74075 104.633 13.7385 112.643 20.8467 112.143H60.1166H99.3875C106.497 112.643 112.494 104.633 109.4 98.1243C96.3636 72.0906 83.3317 46.0569 70.2848 20.0232C68.7027 15.5174 65.048 11.5123 60.1166 12.013Z" fill="#FFB600"/>
<path d="M60.1166 7.00621C55.1852 6.81997 51.5305 10.8522 49.9474 15.1418C36.9035 41.2286 23.8691 67.2993 10.8338 93.3681C7.74075 99.9116 13.7385 107.982 20.8467 107.136C33.9142 107.121 47.0492 107.131 60.1166 107.136C73.1835 107.131 86.3206 107.121 99.3875 107.136C106.497 107.982 112.494 99.9116 109.4 93.3681C96.3636 67.2993 83.3317 41.2306 70.2848 15.1418C68.7027 10.8522 65.048 6.81997 60.1166 7.00621Z" fill="#FFCE00"/>
<path d="M60.1166 37.0453C57.353 37.0453 55.1101 39.2868 55.1101 42.0518L57.6134 77.0972H62.6198L65.1231 42.0518C65.1231 39.2868 62.8802 37.0453 60.1166 37.0453ZM60.1166 82.1037C57.353 82.1037 55.1101 84.3466 55.1101 87.1102C55.1101 89.8738 57.353 92.1167 60.1166 92.1167C62.8802 92.1167 65.1231 89.8738 65.1231 87.1102C65.1231 84.3466 62.8802 82.1037 60.1166 82.1037Z" fill="black"/>
</svg>
