<svg width="120" height="120" viewBox="0 0 120 120" fill="none" xmlns="http://www.w3.org/2000/svg">
<path d="M26.8269 30.396H21.7031V25.2727H18.7603V30.396H13.6362V33.3389H18.7603V38.4619H21.7031V33.3389H26.8269V30.396Z" stroke="#284E02" stroke-width="1.33333" stroke-miterlimit="10"/>
<path d="M98.4428 36.3113C98.4428 38.3916 96.7563 40.0781 94.6757 40.0781C92.5952 40.0781 90.9087 38.3916 90.9087 36.3113C90.9087 34.2308 92.5952 32.5453 94.6757 32.5453C96.7563 32.5453 98.4428 34.2308 98.4428 36.3113Z" stroke="#284E02" stroke-width="1.33333" stroke-miterlimit="10"/>
<path d="M110 27.8628C110 28.4756 109.504 28.9702 108.893 28.9702C108.281 28.9702 107.785 28.4756 107.785 27.8628C107.785 27.25 108.281 26.7553 108.893 26.7553C109.504 26.7553 110 27.25 110 27.8628Z" fill="#284E02"/>
<path d="M60.7982 48.0374H54.011V7.99988H60.7982V48.0374Z" fill="#D6F0F1"/>
<path d="M59.7968 50.3098C60.3148 50.2625 60.8587 50.8138 61.2652 51.071C61.7875 51.4015 62.3026 51.7436 62.8105 52.096C63.8417 52.8114 64.8433 53.5699 65.8105 54.3699C67.7399 55.9661 69.5445 57.729 71.1124 59.684C71.8578 60.6138 72.5646 61.575 73.3413 62.4794C73.7196 62.9202 74.1106 63.3595 74.5398 63.7518C74.7099 63.9076 75.1253 64.3045 75.3559 64.3348C76.0334 64.4229 74.9363 62.9374 74.8406 62.7878C74.3311 61.9904 73.8367 61.1648 73.254 60.4198C72.1241 58.9752 71.1609 57.38 70.0259 55.9253C69.0004 54.6109 67.7271 53.5947 66.4289 52.5638C64.6582 51.1581 63.0236 49.5809 61.5554 47.8619C60.7209 46.8843 59.8955 45.7144 60.0436 44.4376C60.0601 44.2951 60.0955 44.1423 60.2053 44.0503C60.3379 43.9395 60.5314 43.9528 60.7017 43.9803C62.9902 44.3517 64.9087 46.1573 66.7161 47.4759C68.697 48.9213 70.6827 50.3706 72.4911 52.0268C75.1371 54.4477 77.178 57.3384 79.5401 60.0069C79.7559 59.5595 79.2733 59.0751 79.103 58.6789C78.8717 58.1402 78.6561 57.5948 78.4097 57.0623C77.7485 55.6327 77.2925 54.0613 76.4338 52.7285C75.6943 51.5802 74.6686 50.6465 73.6088 49.7851C71.7099 48.2418 69.6462 46.8696 68.0258 45.0361C67.2034 44.1054 66.3401 42.7277 66.5214 41.4177C66.7154 40.0181 69.3806 41.6451 69.9737 42.0352C71.0024 42.7119 72.1113 43.2435 73.1011 43.9528C74.2384 44.7676 75.3616 45.6024 76.4693 46.4573C77.7615 47.4545 79.1901 48.4153 80.3052 49.6136C80.9497 50.3061 81.4862 51.0914 81.9998 51.8861C83.9 54.8247 85.2968 58.1109 87.2804 60.976C87.3793 63.7331 87.1898 66.3304 85.6999 68.7692C85.5594 68.9991 85.4967 69.2317 85.4925 69.4549C84.7837 70.313 83.9386 71.2438 82.92 72.2538C75.6963 79.4172 74.9651 85.3057 82.3345 94.2603C81.0132 93.4956 79.5352 93.1484 78.1856 92.4362C75.8998 91.23 74.3378 89.9469 73.2404 87.5732C72.257 85.4455 71.7641 83.1257 71.3046 80.8397C70.4691 76.6813 69.3041 72.7359 66.6415 69.3641C65.0443 67.3409 63.4472 65.3182 61.85 63.2953C60.8641 62.0466 59.8182 60.5458 60.2026 59.002C60.2991 58.6147 60.619 58.184 61.0031 58.292C61.1188 58.3248 61.2153 58.403 61.3078 58.4796C63.0711 59.9357 64.7685 61.4724 66.3794 63.0964C67.179 63.9026 67.9572 64.73 68.7122 65.5783C69.0786 65.9898 70.3379 67.949 70.8764 67.8267C70.6387 67.05 70.0623 66.3043 69.6538 65.5982C69.2042 64.8211 68.741 64.0515 68.2483 63.3007C67.2868 61.8361 66.2116 60.4284 64.9134 59.244C62.7866 57.3035 60.9276 55.2367 59.6481 52.6197C59.4431 52.2006 59.1709 51.5713 59.1766 51.1069C59.1808 50.7378 59.4291 50.3435 59.7968 50.3098Z" fill="#EDA46E"/>
<path d="M78.8606 71.2461C86.8699 64.973 86.0181 61.5394 86.0181 61.5394C86.1682 61.2672 86.0703 60.6561 86.0523 60.3557C86.0065 59.5873 85.8466 58.8301 85.6901 58.0782C85.3893 56.6351 85.0313 55.1635 85.2338 53.7031C85.4366 52.2427 86.3531 50.7696 87.7819 50.4051C88.1176 50.3195 88.4983 50.305 88.7862 50.4977C89.1138 50.7169 89.2312 51.1348 89.3249 51.5172C89.9906 54.2334 90.6566 56.9494 91.3223 59.6653C91.5339 60.5284 91.7463 61.3996 91.7655 62.2875C91.7825 63.0859 91.6427 63.8788 91.4805 64.6607C90.8116 67.8826 89.7598 71.0103 89.0788 74.2293C88.5064 76.9354 87.6933 79.9078 88.929 82.5125C90.2326 85.261 91.985 87.811 93.882 90.1802C96.0873 92.9346 98.5379 95.4783 100.991 98.0104C102.145 99.201 104.266 100.719 104.754 102.308C105.275 104 104.104 105.913 103.062 107.145C100.236 110.487 96.043 112.637 91.6791 112.981C89.5659 113.147 87.8653 111.916 86.7653 110.179C85.1258 107.592 84.0663 104.63 82.4349 102.018C81.245 100.112 80.1888 98.1485 78.7976 96.3719C77.1425 94.2586 75.3935 92.2069 73.9888 89.912C69.5521 82.6629 72.6943 76.076 78.8606 71.2461Z" fill="#FAB480"/>
<path d="M70.538 37.8752H63.0593V36.2079H70.538V37.8752Z" fill="#6A9113"/>
<path d="M65.9644 40.7799V33.3014H67.6329V40.7799H65.9644Z" fill="#6A9113"/>
<path d="M46.1837 27.5209H44.449V25.7859H43.4528V27.5209H41.7183V28.5176H43.4528V30.2501H44.449V28.5176H46.1837V27.5209Z" stroke="#6A9113" stroke-width="1.33333" stroke-miterlimit="10"/>
<path d="M51.3732 36.4175C51.3732 37.5498 50.4553 38.4678 49.3227 38.4678C48.1904 38.4678 47.2725 37.5498 47.2725 36.4175C47.2725 35.2852 48.1904 34.3673 49.3227 34.3673C50.4553 34.3673 51.3732 35.2852 51.3732 36.4175Z" stroke="#6A9113" stroke-width="1.33333" stroke-miterlimit="10"/>
<path d="M52.7928 55.0359C52.7928 55.6477 52.2969 56.1436 51.6851 56.1436C51.0733 56.1436 50.5774 55.6477 50.5774 55.0359C50.5774 54.4241 51.0733 53.9282 51.6851 53.9282C52.2969 53.9282 52.7928 54.4241 52.7928 55.0359Z" stroke="#284E02" stroke-width="1.33333" stroke-miterlimit="10"/>
<path d="M50.9244 22.077C50.9244 22.6898 50.4285 23.1844 49.8167 23.1844C49.2049 23.1844 48.709 22.6898 48.709 22.077C48.709 21.4667 49.2049 20.9696 49.8167 20.9696C50.4285 20.9696 50.9244 21.4667 50.9244 22.077Z" fill="#6A9113"/>
<path d="M54.7701 51.852C54.2521 51.8048 53.7082 52.356 53.3017 52.6132C52.7792 52.9437 52.2644 53.2858 51.7564 53.6382C50.7253 54.3536 49.7236 55.1121 48.7565 55.9122C46.827 57.5084 45.0224 59.2712 43.4543 61.2262C42.7091 62.156 42.0023 63.1172 41.2256 64.0217C40.8473 64.4624 40.456 64.9017 40.0271 65.294C39.857 65.4498 39.4416 65.8467 39.211 65.877C38.5335 65.9651 39.6304 64.4797 39.7261 64.33C40.2355 63.5327 40.7302 62.707 41.3129 61.962C42.443 60.5174 43.406 58.9222 44.541 57.4675C45.5665 56.1531 46.8396 55.137 48.138 54.1061C49.9087 52.7003 51.5433 51.1231 53.0113 49.4041C53.846 48.4266 54.6715 47.2566 54.5233 45.9798C54.5068 45.8373 54.4714 45.6845 54.3614 45.5925C54.2292 45.4818 54.0355 45.495 53.8652 45.5226C51.5768 45.8939 49.6582 47.6996 47.8508 49.0182C45.87 50.4635 43.8839 51.9128 42.0756 53.5691C39.4298 55.9899 37.3889 58.8806 35.0266 61.5491C34.8111 61.1017 35.2937 60.6174 35.4639 60.2212C35.6952 59.6824 35.9108 59.1371 36.1572 58.6045C36.8185 57.1749 37.2745 55.6036 38.1328 54.2707C38.8724 53.1224 39.8981 52.1887 40.9581 51.3273C42.8567 49.784 44.9205 48.4118 46.5408 46.5784C47.3635 45.6476 48.2269 44.2699 48.0455 42.9599C47.8516 41.5604 45.1863 43.1873 44.593 43.5774C43.5643 44.2542 42.4553 44.7858 41.4658 45.495C40.3285 46.3099 39.2053 47.1446 38.0977 47.9996C36.8055 48.9968 35.3765 49.9576 34.2617 51.1558C33.6171 51.8483 33.0807 52.6336 32.567 53.4283C30.6669 56.367 29.2701 59.6532 27.2865 62.5182C27.1874 65.2753 27.3771 67.8726 28.8669 70.3115C29.0075 70.5413 29.0702 70.7739 29.0744 70.9971C29.7834 71.8553 30.6284 72.786 31.6469 73.796C38.8707 80.9595 39.6018 86.8479 32.2324 95.8025C33.5537 95.0379 35.0318 94.6906 36.3813 93.9784C38.6671 92.7723 40.2291 91.4891 41.3265 89.1155C42.3099 86.9877 42.8028 84.668 43.262 82.3819C44.098 78.2236 45.2628 74.2781 47.9251 70.9063C49.5226 68.8831 51.1197 66.8604 52.7169 64.8375C53.7028 63.5888 54.7487 62.0881 54.3643 60.5443C54.2678 60.1569 53.9479 59.7262 53.5638 59.8343C53.4481 59.867 53.3516 59.9453 53.2588 60.0218C51.4958 61.478 49.7982 63.0146 48.1875 64.6386C47.3879 65.4449 46.6095 66.2722 45.8545 67.1206C45.4885 67.532 44.229 69.4912 43.6905 69.3689C43.9282 68.5922 44.5044 67.8465 44.9131 67.1405C45.3628 66.3633 45.8259 65.5938 46.3186 64.8429C47.2801 63.3784 48.3553 61.9707 49.6535 60.7862C51.78 58.8457 53.6393 56.779 54.9188 54.1619C55.1235 53.7428 55.396 53.1135 55.3903 52.6491C55.3861 52.28 55.1378 51.8857 54.7701 51.852Z" fill="#EDA46E"/>
<path d="M36.0215 71.2461C28.0123 64.973 28.864 61.5394 28.864 61.5394C28.7138 61.2672 28.8118 60.6561 28.8298 60.3557C28.8755 59.5873 29.0355 58.8301 29.1922 58.0782C29.4928 56.6351 29.8509 55.1635 29.6481 53.7031C29.4455 52.2427 28.529 50.7696 27.1003 50.4051C26.7646 50.3195 26.3838 50.305 26.0959 50.4977C25.7685 50.7169 25.6511 51.1348 25.5571 51.5172C24.8914 54.2334 24.2256 56.9494 23.5599 59.6653C23.3483 60.5284 23.1357 61.3996 23.1167 62.2875C23.0995 63.0859 23.2395 63.8788 23.4017 64.6607C24.0703 67.8826 25.1224 71.0103 25.8034 74.2293C26.3757 76.9354 27.1889 79.9078 25.9532 82.5125C24.6495 85.261 22.897 87.811 21.0001 90.1802C18.7947 92.9346 16.3442 95.4783 13.8912 98.0104C12.7378 99.201 10.616 100.719 10.1277 102.308C9.60742 104 10.778 105.913 11.8197 107.145C14.6459 110.487 18.8392 112.637 23.203 112.981C25.3161 113.147 27.0168 111.916 28.1171 110.179C29.7564 107.592 30.8158 104.63 32.4471 102.018C33.6372 100.112 34.6934 98.1485 36.0847 96.3719C37.7396 94.2586 39.4889 92.2069 40.8934 89.912C45.3301 82.6629 42.1876 76.076 36.0215 71.2461Z" fill="#FAB480"/>
<path d="M66.6606 49.4523C63.3119 48.901 60.7571 46.0499 60.7571 42.5452H53.97C53.97 45.8577 51.6871 48.636 48.6092 49.3962C45.9922 49.5217 43.9089 51.6824 43.9089 54.3305C43.9089 57.059 46.1209 59.2707 48.8499 59.2707C49.6871 59.2707 50.4754 59.0615 51.1664 58.6941C50.909 59.4014 50.7685 60.1648 50.7685 60.9611C50.7685 64.6231 53.7372 67.5918 57.3996 67.5918C61.0621 67.5918 64.031 64.6231 64.031 60.9611C64.031 60.1815 63.8954 59.4336 63.6481 58.7386C64.3182 59.0782 65.0752 59.2707 65.8775 59.2707C68.6062 59.2707 70.8184 57.059 70.8184 54.3305C70.8184 51.8685 69.017 49.8278 66.6606 49.4523Z" fill="#D6F0F1"/>
<path d="M67.6133 57.1107C67.6133 57.5611 67.2484 57.9258 66.798 57.9258C66.3479 57.9258 65.9829 57.5611 65.9829 57.1107C65.9829 56.6606 66.3479 56.2959 66.798 56.2959C67.2484 56.2959 67.6133 56.6606 67.6133 57.1107Z" fill="#284E02"/>
<path d="M60.8903 63.2152H59.5363V61.8614H58.7588V63.2152H57.4048V63.9929H58.7588V65.3467H59.5363V63.9929H60.8903V63.2152Z" fill="#284E02"/>
</svg>
